<?xml version="1.0" encoding="UTF-8" standalone="no"?>
<!-- Created with Inkscape (http://www.inkscape.org/) -->
<svg
   xmlns:dc="http://purl.org/dc/elements/1.1/"
   xmlns:cc="http://creativecommons.org/ns#"
   xmlns:rdf="http://www.w3.org/1999/02/22-rdf-syntax-ns#"
   xmlns:svg="http://www.w3.org/2000/svg"
   xmlns="http://www.w3.org/2000/svg"
   xmlns:sodipodi="http://sodipodi.sourceforge.net/DTD/sodipodi-0.dtd"
   xmlns:inkscape="http://www.inkscape.org/namespaces/inkscape"
   width="210mm"
   height="297mm"
   id="svg2"
   sodipodi:version="0.32"
   inkscape:version="0.46"
   sodipodi:docname="slitaz_qrcode.svg"
   inkscape:output_extension="org.inkscape.output.svg.inkscape">
  <defs
     id="defs4">
    <inkscape:perspective
       sodipodi:type="inkscape:persp3d"
       inkscape:vp_x="0 : 526.18109 : 1"
       inkscape:vp_y="0 : 1000 : 0"
       inkscape:vp_z="744.09448 : 526.18109 : 1"
       inkscape:persp3d-origin="372.04724 : 350.78739 : 1"
       id="perspective10" />
    <inkscape:perspective
       id="perspective2464"
       inkscape:persp3d-origin="372.04724 : 350.78739 : 1"
       inkscape:vp_z="744.09448 : 526.18109 : 1"
       inkscape:vp_y="0 : 1000 : 0"
       inkscape:vp_x="0 : 526.18109 : 1"
       sodipodi:type="inkscape:persp3d" />
  </defs>
  <sodipodi:namedview
     id="base"
     pagecolor="#ffffff"
     bordercolor="#666666"
     borderopacity="1.0"
     inkscape:pageopacity="0.0"
     inkscape:pageshadow="2"
     inkscape:zoom="0.35"
     inkscape:cx="740.2325"
     inkscape:cy="608.4874"
     inkscape:document-units="px"
     inkscape:current-layer="layer1"
     showgrid="false"
     inkscape:window-width="1024"
     inkscape:window-height="600"
     inkscape:window-x="0"
     inkscape:window-y="0" />
  <metadata
     id="metadata7">
    <rdf:RDF>
      <cc:Work
         rdf:about="">
        <dc:format>image/svg+xml</dc:format>
        <dc:type
           rdf:resource="http://purl.org/dc/dcmitype/StillImage" />
      </cc:Work>
    </rdf:RDF>
  </metadata>
  <g
     inkscape:label="Calque 1"
     inkscape:groupmode="layer"
     id="layer1">
    <path
       style="fill:#000000"
       d="M 73.14288,820.38306 L 73.14288,767.26111 L 126.26483,767.26111 L 179.38678,767.26111 L 179.38678,820.38306 L 179.38678,873.50501 L 126.26483,873.50501 L 73.14288,873.50501 L 73.14288,820.38306 z M 164.20908,820.38306 L 164.20908,782.43881 L 126.26483,782.43881 L 88.320581,782.43881 L 88.320581,820.38306 L 88.320581,858.32731 L 126.26483,858.32731 L 164.20908,858.32731 L 164.20908,820.38306 z M 103.49828,820.38306 L 103.49828,797.61651 L 126.26483,797.61651 L 149.03138,797.61651 L 149.03138,820.38306 L 149.03138,843.14961 L 126.26483,843.14961 L 103.49828,843.14961 L 103.49828,820.38306 z M 224.91988,865.91616 L 224.91988,858.32731 L 217.33103,858.32731 L 209.74218,858.32731 L 209.74218,850.73846 L 209.74218,843.14961 L 202.15333,843.14961 L 194.56447,843.14961 L 194.56447,820.38306 L 194.56447,797.61651 L 209.74218,797.61651 L 224.91988,797.61651 L 224.91988,782.43881 L 224.91988,767.26111 L 209.74218,767.26111 L 194.56447,767.26111 L 194.56447,744.49456 L 194.56447,721.72802 L 209.74218,721.72802 L 224.91988,721.72802 L 224.91988,706.55032 L 224.91988,691.37264 L 217.33103,691.37264 L 209.74218,691.37264 L 209.74218,668.60609 L 209.74218,645.83953 L 202.15333,645.83953 L 194.56447,645.83953 L 194.56447,638.25068 L 194.56447,630.66183 L 179.38678,630.66183 L 164.20908,630.66183 L 164.20908,623.07298 L 164.20908,615.48413 L 156.62023,615.48413 L 149.03138,615.48413 L 149.03138,600.30643 L 149.03138,585.12873 L 141.44253,585.12873 L 133.85368,585.12873 L 133.85368,577.53988 L 133.85368,569.95103 L 118.67598,569.95103 L 103.49828,569.95103 L 103.49828,577.53988 L 103.49828,585.12873 L 95.909431,585.12873 L 88.320581,585.12873 L 88.320581,569.95103 L 88.320581,554.77333 L 80.73173,554.77333 L 73.14288,554.77333 L 73.14288,547.18448 L 73.14288,539.59564 L 80.73173,539.59564 L 88.320581,539.59564 L 88.320581,547.18448 L 88.320581,554.77333 L 95.909431,554.77333 L 103.49828,554.77333 L 103.49828,547.18448 L 103.49828,539.59564 L 111.08713,539.59564 L 118.67598,539.59564 L 118.67598,547.18448 L 118.67598,554.77333 L 126.26483,554.77333 L 133.85368,554.77333 L 133.85368,547.18448 L 133.85368,539.59564 L 141.44253,539.59564 L 149.03138,539.59564 L 149.03138,554.77333 L 149.03138,569.95103 L 156.62023,569.95103 L 164.20908,569.95103 L 164.20908,562.36218 L 164.20908,554.77333 L 179.38678,554.77333 L 194.56447,554.77333 L 194.56447,547.18448 L 194.56447,539.59564 L 179.38678,539.59564 L 164.20908,539.59564 L 164.20908,532.00678 L 164.20908,524.41793 L 156.62023,524.41793 L 149.03138,524.41793 L 149.03138,516.82908 L 149.03138,509.24023 L 141.44253,509.24023 L 133.85368,509.24023 L 133.85368,516.82908 L 133.85368,524.41793 L 126.26483,524.41793 L 118.67598,524.41793 L 118.67598,501.65138 L 118.67598,478.88483 L 111.08713,478.88483 L 103.49828,478.88483 L 103.49828,486.47368 L 103.49828,494.06253 L 88.320581,494.06253 L 73.14288,494.06253 L 73.14288,471.29598 L 73.14288,448.52943 L 80.73173,448.52943 L 88.320581,448.52943 L 88.320581,463.70713 L 88.320581,478.88483 L 95.909431,478.88483 L 103.49828,478.88483 L 103.49828,456.11828 L 103.49828,433.35174 L 88.320581,433.35174 L 73.14288,433.35174 L 73.14288,425.76288 L 73.14288,418.17404 L 80.73173,418.17404 L 88.320581,418.17404 L 88.320581,402.99633 L 88.320581,387.81864 L 95.909431,387.81864 L 103.49828,387.81864 L 103.49828,380.22979 L 103.49828,372.64094 L 126.26483,372.64094 L 149.03138,372.64094 L 149.03138,380.22979 L 149.03138,387.81864 L 141.44253,387.81864 L 133.85368,387.81864 L 133.85368,395.40749 L 133.85368,402.99633 L 126.26483,402.99633 L 118.67598,402.99633 L 118.67598,410.58519 L 118.67598,418.17404 L 133.85368,418.17404 L 149.03138,418.17404 L 149.03138,425.76288 L 149.03138,433.35174 L 164.20908,433.35174 L 179.38678,433.35174 L 179.38678,440.94058 L 179.38678,448.52943 L 171.79793,448.52943 L 164.20908,448.52943 L 164.20908,456.11828 L 164.20908,463.70713 L 179.38678,463.70713 L 194.56447,463.70713 L 194.56447,456.11828 L 194.56447,448.52943 L 202.15333,448.52943 L 209.74218,448.52943 L 209.74218,433.35174 L 209.74218,418.17404 L 186.97563,418.17404 L 164.20908,418.17404 L 164.20908,410.58519 L 164.20908,402.99633 L 171.79793,402.99633 L 179.38678,402.99633 L 179.38678,395.40749 L 179.38678,387.81864 L 171.79793,387.81864 L 164.20908,387.81864 L 164.20908,380.22979 L 164.20908,372.64094 L 171.79793,372.64094 L 179.38678,372.64094 L 179.38678,380.22979 L 179.38678,387.81864 L 186.97563,387.81864 L 194.56447,387.81864 L 194.56447,357.46324 L 194.56447,327.10784 L 209.74218,327.10784 L 224.91988,327.10784 L 224.91988,319.51899 L 224.91988,311.93014 L 232.50873,311.93014 L 240.09758,311.93014 L 240.09758,334.69669 L 240.09758,357.46324 L 232.50873,357.46324 L 224.91988,357.46324 L 224.91988,380.22979 L 224.91988,402.99633 L 217.33103,402.99633 L 209.74218,402.99633 L 209.74218,410.58519 L 209.74218,418.17404 L 217.33103,418.17404 L 224.91988,418.17404 L 224.91988,433.35174 L 224.91988,448.52943 L 232.50873,448.52943 L 240.09758,448.52943 L 240.09758,440.94058 L 240.09758,433.35174 L 247.68642,433.35174 L 255.27528,433.35174 L 255.27528,448.52943 L 255.27528,463.70713 L 240.09758,463.70713 L 224.91988,463.70713 L 224.91988,471.29598 L 224.91988,478.88483 L 194.56447,478.88483 L 164.20908,478.88483 L 164.20908,471.29598 L 164.20908,463.70713 L 156.62023,463.70713 L 149.03138,463.70713 L 149.03138,471.29598 L 149.03138,478.88483 L 141.44253,478.88483 L 133.85368,478.88483 L 133.85368,486.47368 L 133.85368,494.06253 L 156.62023,494.06253 L 179.38678,494.06253 L 179.38678,501.65138 L 179.38678,509.24023 L 186.97563,509.24023 L 194.56447,509.24023 L 194.56447,501.65138 L 194.56447,494.06253 L 217.33103,494.06253 L 240.09758,494.06253 L 240.09758,486.47368 L 240.09758,478.88483 L 247.44927,478.88968 L 254.80097,478.89452 L 255.20229,479.14924 L 255.60362,479.40397 L 255.5185,486.6542 L 255.43338,493.90443 L 247.74926,493.98914 L 240.06513,494.07385 L 240.09843,509.16684 C 240.11674,517.46798 240.12404,527.71039 240.11465,531.92773 L 240.09758,539.59564 L 224.91988,539.59564 L 209.74218,539.59564 L 209.74218,547.18448 L 209.74218,554.77333 L 202.15333,554.77333 L 194.56447,554.77333 L 194.56447,562.36218 L 194.56447,569.95103 L 209.03072,569.95536 L 223.49697,569.95967 L 224.20842,570.15033 L 224.91988,570.341 L 224.91988,592.91255 L 224.91988,615.48413 L 232.50873,615.48413 L 240.09758,615.48413 L 240.09758,630.66183 L 240.09758,645.83953 L 247.68642,645.83953 L 255.27528,645.83953 L 255.27528,653.42838 L 255.27528,661.01724 L 262.67232,661.01724 L 270.06939,661.01724 L 270.30129,668.60305 L 270.5332,676.18886 L 285.59172,676.27095 L 300.65027,676.35304 L 300.73239,691.45168 L 300.8145,706.55032 L 293.22259,706.55032 L 285.63067,706.55032 L 285.63067,721.72802 L 285.63067,736.90571 L 293.21952,736.90571 L 300.80837,736.90571 L 300.80837,729.31686 L 300.80837,721.72802 L 308.39722,721.72802 L 315.98607,721.72802 L 315.98607,707.02462 L 315.98607,692.32124 L 323.57492,692.32124 L 331.16377,692.32124 L 331.16377,699.43579 L 331.16377,706.55032 L 338.75262,706.55032 L 346.34147,706.55032 L 346.34147,714.13918 L 346.34147,721.72802 L 353.93032,721.72802 L 361.51917,721.72802 L 361.51917,729.31686 L 361.51917,736.90571 L 376.69687,736.90571 L 391.87456,736.90571 L 391.87456,744.49456 L 391.87456,752.08342 L 399.46342,752.08342 L 407.05226,752.08342 L 407.05226,744.49456 L 407.05226,736.90571 L 422.22997,736.90571 L 437.40767,736.90571 L 437.40767,729.31686 L 437.40767,721.72802 L 414.64112,721.72802 L 391.87456,721.72802 L 391.87456,714.13918 L 391.87456,706.55032 L 376.69114,706.55032 L 361.50772,706.55032 L 361.5925,699.04053 L 361.67727,691.53073 L 391.87456,691.37264 C 408.48308,691.28568 425.52242,691.25263 429.73976,691.29921 L 437.40767,691.38389 L 437.40767,698.96711 L 437.40767,706.55032 L 444.99652,706.55032 L 452.58537,706.55032 L 452.58537,694.74442 C 452.58537,688.25118 452.67956,678.00624 452.79466,671.97787 L 453.00398,661.01724 L 460.38351,661.01724 L 467.76305,661.01724 L 467.76305,668.60609 L 467.76305,676.19493 L 475.35191,676.19493 L 482.94075,676.19493 L 482.94075,683.78379 L 482.94075,691.37264 L 490.5296,691.37264 L 498.11846,691.37264 L 498.11846,661.01724 L 498.11846,630.66183 L 505.7073,630.66183 L 513.29615,630.66183 L 513.29615,623.07298 L 513.29615,615.48413 L 520.84589,615.48413 L 528.39562,615.48413 L 528.62962,600.50782 L 528.86363,585.53151 L 531.24606,585.33012 C 532.5564,585.21935 535.8837,585.12873 538.64003,585.12873 L 543.65155,585.12873 L 543.65155,607.89528 L 543.65155,630.66183 L 551.2404,630.66183 L 558.82924,630.66183 L 558.82924,623.07298 L 558.82924,615.48413 L 566.41809,615.48413 L 574.00694,615.48413 L 574.00694,607.89528 L 574.00694,600.30643 L 566.41809,600.30643 L 558.82924,600.30643 L 558.82924,592.71758 L 558.82924,585.12873 L 566.41809,585.12873 L 574.00694,585.12873 L 574.00694,592.71758 L 574.00694,600.30643 L 581.59579,600.30643 L 589.18464,600.30643 L 589.18464,592.71758 L 589.18464,585.12873 L 604.36234,585.12873 L 619.54004,585.12873 L 619.54004,577.53988 L 619.54004,569.95103 L 611.95118,569.95103 L 604.36234,569.95103 L 604.36234,554.77333 L 604.36234,539.59564 L 611.95118,539.59564 L 619.54004,539.59564 L 619.54004,547.18448 L 619.54004,554.77333 L 627.12889,554.77333 L 634.71773,554.77333 L 634.71773,547.18448 L 634.71773,539.59564 L 642.30658,539.59564 L 649.89543,539.59564 L 649.89543,532.00678 L 649.89543,524.41793 L 619.54004,524.41793 L 589.18464,524.41793 L 589.18464,532.00678 L 589.18464,539.59564 L 581.59579,539.59564 L 574.00694,539.59564 L 574.00694,547.18448 L 574.00694,554.77333 L 581.59579,554.77333 L 589.18464,554.77333 L 589.18464,562.36218 L 589.18464,569.95103 L 558.82924,569.95103 L 528.47385,569.95103 L 528.47385,562.36218 L 528.47385,554.77333 L 536.0627,554.77333 L 543.65155,554.77333 L 543.65155,547.18448 L 543.65155,539.59564 L 536.0627,539.59564 L 528.47385,539.59564 L 528.47385,524.41793 L 528.47385,509.24023 L 536.0627,509.24023 L 543.65155,509.24023 L 543.65155,516.82908 L 543.65155,524.41793 L 551.2404,524.41793 L 558.82924,524.41793 L 558.82924,516.82908 L 558.82924,509.24023 L 581.59579,509.24023 L 604.36234,509.24023 L 604.36234,501.65138 L 604.36234,494.06253 L 596.77349,494.06253 L 589.18464,494.06253 L 589.18464,486.47368 L 589.18464,478.88483 L 574.00694,478.88483 L 558.82924,478.88483 L 558.82924,471.29598 L 558.82924,463.70713 L 566.41809,463.70713 L 574.00694,463.70713 L 574.00694,456.11828 L 574.00694,448.52943 L 566.41809,448.52943 L 558.82924,448.52943 L 558.82924,433.35174 L 558.82924,418.17404 L 574.00694,418.17404 L 589.18464,418.17404 L 589.18464,410.58519 L 589.18464,402.99633 L 604.36234,402.99633 L 619.54004,402.99633 L 619.54004,395.40749 L 619.54004,387.81864 L 596.77349,387.81864 L 574.00694,387.81864 L 574.00694,395.40749 L 574.00694,402.99633 L 558.82924,402.99633 L 543.65155,402.99633 L 543.65155,410.58519 L 543.65155,418.17404 L 536.0627,418.17404 L 528.47385,418.17404 L 528.47385,410.58519 L 528.47385,402.99633 L 536.0627,402.99633 L 543.65155,402.99633 L 543.65155,380.22979 L 543.65155,357.46324 L 536.0627,357.46324 L 528.47385,357.46324 L 528.47385,334.69669 L 528.47385,311.93014 L 536.0627,311.93014 L 543.65155,311.93014 L 543.65155,319.51899 L 543.65155,327.10784 L 551.2404,327.10784 L 558.82924,327.10784 L 558.82924,319.51899 L 558.82924,311.93014 L 566.41809,311.93014 L 574.00694,311.93014 L 574.00694,319.51899 L 574.00694,327.10784 L 566.41809,327.10784 L 558.82924,327.10784 L 558.82924,334.69669 L 558.82924,342.28554 L 566.41809,342.28554 L 574.00694,342.28554 L 574.00694,357.46324 L 574.00694,372.64094 L 596.77349,372.64094 L 619.54004,372.64094 L 619.54004,380.22979 L 619.54004,387.81864 L 634.71773,387.81864 L 649.89543,387.81864 L 649.89543,380.22979 L 649.89543,372.64094 L 672.66198,372.64094 L 695.42854,372.64094 L 695.42854,380.22979 L 695.42854,387.81864 L 687.83968,387.81864 L 680.25084,387.81864 L 680.25084,395.40749 L 680.25084,402.99633 L 687.83968,402.99633 L 695.42854,402.99633 L 695.42854,425.76288 L 695.42854,448.52943 L 687.83968,448.52943 L 680.25084,448.52943 L 680.25084,440.94058 L 680.25084,433.35174 L 672.66198,433.35174 L 665.07313,433.35174 L 665.07313,440.94058 L 665.07313,448.52943 L 642.30658,448.52943 L 619.54004,448.52943 L 619.54004,456.11828 L 619.54004,463.70713 L 611.95118,463.70713 L 604.36234,463.70713 L 604.36234,456.11828 L 604.36234,448.52943 L 596.77349,448.52943 L 589.18464,448.52943 L 589.18464,463.70713 L 589.18464,478.88483 L 604.36234,478.88483 L 619.54004,478.88483 L 619.54004,494.06253 L 619.54004,509.24023 L 627.12889,509.24023 L 634.71773,509.24023 L 634.71773,501.65138 L 634.71773,494.06253 L 642.30658,494.06253 L 649.89543,494.06253 L 649.89543,501.65138 L 649.89543,509.24023 L 657.48428,509.24023 L 665.07313,509.24023 L 665.07313,501.65138 L 665.07313,494.06253 L 672.66198,494.06253 L 680.25084,494.06253 L 680.25084,509.24023 L 680.25084,524.41793 L 687.83968,524.41793 L 695.42854,524.41793 L 695.42854,554.77333 L 695.42854,585.12873 L 687.83968,585.12873 L 680.25084,585.12873 L 680.25084,569.95103 L 680.25084,554.77333 L 657.48428,554.77333 L 634.71773,554.77333 L 634.71773,569.95103 L 634.71773,585.12873 L 642.30658,585.12873 L 649.89543,585.12873 L 649.89543,592.71758 L 649.89543,600.30643 L 642.30658,600.30643 L 634.71773,600.30643 L 634.71773,607.89528 L 634.71773,615.48413 L 642.30658,615.48413 L 649.89543,615.48413 L 649.89543,630.66183 L 649.89543,645.83953 L 665.07313,645.83953 L 680.25084,645.83953 L 680.25084,653.42838 L 680.25084,661.01724 L 665.07313,661.01724 L 649.89543,661.01724 L 649.89543,668.60609 L 649.89543,676.19493 L 665.07313,676.19493 L 680.25084,676.19493 L 680.25084,691.37264 L 680.25084,706.55032 L 687.83968,706.55032 L 695.42854,706.55032 L 695.42854,729.31686 L 695.42854,752.08342 L 687.83968,752.08342 L 680.25084,752.08342 L 680.25084,767.26111 L 680.25084,782.43881 L 687.83968,782.43881 L 695.42854,782.43881 L 695.42854,790.02766 L 695.42854,797.61651 L 687.83968,797.61651 L 680.25084,797.61651 L 680.25084,790.02766 L 680.25084,782.43881 L 672.66198,782.43881 L 665.07313,782.43881 L 665.07313,767.26111 L 665.07313,752.08342 L 672.66198,752.08342 L 680.25084,752.08342 L 680.25084,744.49456 L 680.25084,736.90571 L 657.48428,736.90571 L 634.71773,736.90571 L 634.71773,752.08342 L 634.71773,767.26111 L 642.30658,767.26111 L 649.89543,767.26111 L 649.89543,774.84997 L 649.89543,782.43881 L 642.30658,782.43881 L 634.71773,782.43881 L 634.71773,790.02766 L 634.71773,797.61651 L 642.30658,797.61651 L 649.89543,797.61651 L 649.89543,805.20536 L 649.89543,812.79421 L 665.07313,812.79421 L 680.25084,812.79421 L 680.25084,835.56076 L 680.25084,858.32731 L 657.48428,858.32731 L 634.71773,858.32731 L 634.71773,865.91616 L 634.71773,873.50501 L 589.18464,873.50501 L 543.65155,873.50501 L 543.65155,865.91616 L 543.65155,858.32731 L 536.0627,858.32731 L 528.47385,858.32731 L 528.47385,865.91616 L 528.47385,873.50501 L 520.885,873.50501 L 513.29615,873.50501 L 513.29615,865.91616 L 513.29615,858.32731 L 520.885,858.32731 L 528.47385,858.32731 L 528.47385,850.73846 L 528.47385,843.14961 L 513.29615,843.14961 L 498.11846,843.14961 L 498.11846,858.32731 L 498.11846,873.50501 L 482.94075,873.50501 L 467.76305,873.50501 L 467.76305,865.91616 L 467.76305,858.32731 L 460.17421,858.32731 L 452.58537,858.32731 L 452.58537,850.73846 L 452.58537,843.14961 L 444.99652,843.14961 L 437.40767,843.14961 L 437.40767,850.73846 L 437.40767,858.32731 L 429.81882,858.32731 L 422.22997,858.32731 L 422.22997,865.91616 L 422.22997,873.50501 L 407.05226,873.50501 L 391.87456,873.50501 L 391.87456,865.91616 L 391.87456,858.32731 L 384.28572,858.32731 L 376.69687,858.32731 L 376.69687,865.91616 L 376.69687,873.50501 L 369.10802,873.50501 L 361.51917,873.50501 L 361.51917,865.91616 L 361.51917,858.32731 L 346.34147,858.32731 L 331.16377,858.32731 L 331.16377,850.73846 L 331.16377,843.14961 L 323.57492,843.14961 L 315.98607,843.14961 L 315.98607,858.32731 L 315.98607,873.50501 L 293.21952,873.50501 L 270.45297,873.50501 L 270.45297,850.73846 L 270.45297,827.97191 L 247.68642,827.97191 L 224.91988,827.97191 L 224.91988,820.38306 L 224.91988,812.79421 L 217.33103,812.79421 L 209.74218,812.79421 L 209.74218,827.97191 L 209.74218,843.14961 L 232.50873,843.14961 L 255.27528,843.14961 L 255.27528,850.73846 L 255.27528,858.32731 L 247.68642,858.32731 L 240.09758,858.32731 L 240.09758,865.91616 L 240.09758,873.50501 L 232.50873,873.50501 L 224.91988,873.50501 L 224.91988,865.91616 z M 300.80837,850.73846 L 300.80837,843.14961 L 293.21952,843.14961 L 285.63067,843.14961 L 285.63067,850.73846 L 285.63067,858.32731 L 293.21952,858.32731 L 300.80837,858.32731 L 300.80837,850.73846 z M 376.69687,850.73846 L 376.69687,843.14961 L 369.10802,843.14961 L 361.51917,843.14961 L 361.51917,850.73846 L 361.51917,858.32731 L 369.10802,858.32731 L 376.69687,858.32731 L 376.69687,850.73846 z M 482.94075,835.56076 L 482.94075,812.79421 L 490.5296,812.79421 L 498.11846,812.79421 L 498.11846,820.38306 L 498.11846,827.97191 L 505.7073,827.97191 L 513.29615,827.97191 L 513.29615,820.38306 L 513.29615,812.79421 L 536.0627,812.79421 L 558.82924,812.79421 L 558.82924,820.38306 L 558.82924,827.97191 L 543.65155,827.97191 L 528.47385,827.97191 L 528.47385,835.56076 L 528.47385,843.14961 L 536.0627,843.14961 L 543.65155,843.14961 L 543.65155,850.73846 L 543.65155,858.32731 L 566.41809,858.32731 L 589.18464,858.32731 L 589.18464,850.73846 L 589.18464,843.14961 L 581.59579,843.14961 L 574.00694,843.14961 L 574.00694,835.56076 L 574.00694,827.97191 L 589.18464,827.97191 L 604.36234,827.97191 L 604.36234,835.56076 L 604.36234,843.14961 L 611.95118,843.14961 L 619.54004,843.14961 L 619.54004,850.73846 L 619.54004,858.32731 L 627.12889,858.32731 L 634.71773,858.32731 L 634.71773,850.73846 L 634.71773,843.14961 L 642.30658,843.14961 L 649.89543,843.14961 L 649.89543,835.56076 L 649.89543,827.97191 L 642.30658,827.97191 L 634.71773,827.97191 L 634.71773,820.38306 L 634.71773,812.79421 L 596.77349,812.79421 L 558.82924,812.79421 L 558.82924,790.02766 L 558.82924,767.26111 L 551.2404,767.26111 L 543.65155,767.26111 L 543.65155,759.67227 L 543.65155,752.08342 L 536.0627,752.08342 L 528.47385,752.08342 L 528.47385,744.49456 L 528.47385,736.90571 L 536.0627,736.90571 L 543.65155,736.90571 L 543.65155,729.31686 L 543.65155,721.72802 L 536.0627,721.72802 L 528.47385,721.72802 L 528.47385,706.55032 L 528.47385,691.37264 L 536.0627,691.37264 L 543.65155,691.37264 L 543.65155,698.96148 L 543.65155,706.55032 L 551.2404,706.55032 L 558.82924,706.55032 L 558.82924,714.13918 L 558.82924,721.72802 L 574.00694,721.72802 L 589.18464,721.72802 L 589.18464,729.31686 L 589.18464,736.90571 L 604.36234,736.90571 L 619.54004,736.90571 L 619.54004,729.31686 L 619.54004,721.72802 L 604.36234,721.72802 L 589.18464,721.72802 L 589.18464,714.13918 L 589.18464,706.55032 L 604.36234,706.55032 L 619.54004,706.55032 L 619.54004,698.96148 L 619.54004,691.37264 L 611.95118,691.37264 L 604.36234,691.37264 L 604.36234,676.19493 L 604.36234,661.01724 L 611.95118,661.01724 L 619.54004,661.01724 L 619.54004,668.60609 L 619.54004,676.19493 L 627.12889,676.19493 L 634.71773,676.19493 L 634.71773,653.42838 L 634.71773,630.66183 L 627.12889,630.66183 L 619.54004,630.66183 L 619.54004,615.48413 L 619.54004,600.30643 L 611.95118,600.30643 L 604.36234,600.30643 L 604.36234,615.48413 L 604.36234,630.66183 L 596.77349,630.66183 L 589.18464,630.66183 L 589.18464,623.07298 L 589.18464,615.48413 L 581.59579,615.48413 L 574.00694,615.48413 L 574.00694,623.07298 L 574.00694,630.66183 L 581.59579,630.66183 L 589.18464,630.66183 L 589.18464,645.83953 L 589.18464,661.01724 L 574.00694,661.01724 L 558.82924,661.01724 L 558.82924,653.42838 L 558.82924,645.83953 L 543.65155,645.83953 L 528.47385,645.83953 L 528.47385,653.42838 L 528.47385,661.01724 L 536.0627,661.01724 L 543.65155,661.01724 L 543.65155,668.60609 L 543.65155,676.19493 L 528.47385,676.19493 L 513.29615,676.19493 L 513.29615,683.78379 L 513.29615,691.37264 L 505.7073,691.37264 L 498.11846,691.37264 L 498.11846,698.96148 L 498.11846,706.55032 L 505.7073,706.55032 L 513.29615,706.55032 L 513.29615,714.13918 L 513.29615,721.72802 L 505.7073,721.72802 L 498.11846,721.72802 L 498.11846,736.90571 L 498.11846,752.08342 L 513.29615,752.08342 L 528.47385,752.08342 L 528.47385,767.26111 L 528.47385,782.43881 L 536.0627,782.43881 L 543.65155,782.43881 L 543.65155,790.02766 L 543.65155,797.61651 L 528.47385,797.61651 L 513.29615,797.61651 L 513.29615,805.20536 L 513.29615,812.79421 L 505.7073,812.79421 L 498.11846,812.79421 L 498.11846,797.61651 L 498.11846,782.43881 L 505.7073,782.43881 L 513.29615,782.43881 L 513.29615,774.84997 L 513.29615,767.26111 L 498.11846,767.26111 L 482.94075,767.26111 L 482.94075,759.67227 L 482.94075,752.08342 L 475.35191,752.08342 L 467.76305,752.08342 L 467.76305,736.90571 L 467.76305,721.72802 L 475.35191,721.72802 L 482.94075,721.72802 L 482.94075,714.13918 L 482.94075,706.55032 L 475.35191,706.55032 L 467.76305,706.55032 L 467.76305,714.13918 L 467.76305,721.72802 L 460.17421,721.72802 L 452.58537,721.72802 L 452.58537,729.31686 L 452.58537,736.90571 L 444.99652,736.90571 L 437.40767,736.90571 L 437.40767,744.49456 L 437.40767,752.08342 L 422.22997,752.08342 L 407.05226,752.08342 L 407.05226,767.26111 L 407.05226,782.43881 L 399.46342,782.43881 L 391.87456,782.43881 L 391.87456,774.84997 L 391.87456,767.26111 L 376.69687,767.26111 L 361.51917,767.26111 L 361.51917,774.84997 L 361.51917,782.43881 L 353.93032,782.43881 L 346.34147,782.43881 L 346.34147,805.20536 L 346.34147,827.97191 L 338.75262,827.97191 L 331.16377,827.97191 L 331.16377,820.38306 L 331.16377,812.79421 L 323.57492,812.79421 L 315.98607,812.79421 L 315.98607,805.20536 L 315.98607,797.61651 L 323.57492,797.61651 L 331.16377,797.61651 L 331.16377,782.43881 L 331.16377,767.26111 L 323.57492,767.26111 L 315.98607,767.26111 L 315.98607,759.67227 L 315.98607,752.08342 L 323.57492,752.08342 L 331.16377,752.08342 L 331.16377,744.49456 L 331.16377,736.90571 L 315.98607,736.90571 L 300.80837,736.90571 L 300.80837,752.08342 L 300.80837,767.26111 L 293.21952,767.26111 L 285.63067,767.26111 L 285.63067,752.08342 L 285.63067,736.90571 L 270.45297,736.90571 L 255.27528,736.90571 L 255.27528,714.13918 L 255.27528,691.37264 L 262.86413,691.37264 L 270.45297,691.37264 L 270.45297,683.78379 L 270.45297,676.19493 L 255.27528,676.19493 L 240.09758,676.19493 L 240.09758,661.01724 L 240.09758,645.83953 L 232.50873,645.83953 L 224.91988,645.83953 L 224.91988,638.25068 L 224.91988,630.66183 L 217.33103,630.66183 L 209.74218,630.66183 L 209.74218,623.07298 L 209.74218,615.48413 L 202.15333,615.48413 L 194.56447,615.48413 L 194.56447,607.89528 L 194.56447,600.30643 L 202.15333,600.30643 L 209.74218,600.30643 L 209.74218,592.71758 L 209.74218,585.12873 L 194.56447,585.12873 L 179.38678,585.12873 L 179.38678,577.53988 L 179.38678,569.95103 L 171.79793,569.95103 L 164.20908,569.95103 L 164.20908,577.53988 L 164.20908,585.12873 L 171.79793,585.12873 L 179.38678,585.12873 L 179.38678,592.71758 L 179.38678,600.30643 L 171.79793,600.30643 L 164.20908,600.30643 L 164.20908,607.89528 L 164.20908,615.48413 L 179.38678,615.48413 L 194.56447,615.48413 L 194.56447,623.07298 L 194.56447,630.66183 L 202.15333,630.66183 L 209.74218,630.66183 L 209.74218,638.25068 L 209.74218,645.83953 L 217.33103,645.83953 L 224.91988,645.83953 L 224.91988,668.60609 L 224.91988,691.37264 L 232.50873,691.37264 L 240.09758,691.37264 L 240.09758,721.72802 L 240.09758,752.08342 L 232.50873,752.08342 L 224.91988,752.08342 L 224.91988,759.67227 L 224.91988,767.26111 L 232.50873,767.26111 L 240.09758,767.26111 L 240.09758,774.84997 L 240.09758,782.43881 L 255.27528,782.43881 L 270.45297,782.43881 L 270.45297,774.84997 L 270.45297,767.26111 L 278.04182,767.26111 L 285.63067,767.26111 L 285.63067,782.43881 L 285.63067,797.61651 L 293.21952,797.61651 L 300.80837,797.61651 L 300.80837,805.20536 L 300.80837,812.79421 L 293.21952,812.79421 L 285.63067,812.79421 L 285.63067,820.38306 L 285.63067,827.97191 L 293.21952,827.97191 L 300.80837,827.97191 L 300.80837,820.38306 L 300.80837,812.79421 L 308.39722,812.79421 L 315.98607,812.79421 L 315.98607,820.38306 L 315.98607,827.97191 L 323.57492,827.97191 L 331.16377,827.97191 L 331.16377,835.56076 L 331.16377,843.14961 L 338.75262,843.14961 L 346.34147,843.14961 L 346.34147,835.56076 L 346.34147,827.97191 L 353.93032,827.97191 L 361.51917,827.97191 L 361.51917,820.38306 L 361.51917,812.79421 L 369.10802,812.79421 L 376.69687,812.79421 L 376.69687,820.38306 L 376.69687,827.97191 L 384.28572,827.97191 L 391.87456,827.97191 L 391.87456,820.38306 L 391.87456,812.79421 L 384.28572,812.79421 L 376.69687,812.79421 L 376.69687,805.20536 L 376.69687,797.61651 L 391.87456,797.61651 L 407.05226,797.61651 L 407.05226,805.20536 L 407.05226,812.79421 L 422.22997,812.79421 L 437.40767,812.79421 L 437.40767,820.38306 L 437.40767,827.97191 L 422.22997,827.97191 L 407.05226,827.97191 L 407.05226,835.56076 L 407.05226,843.14961 L 422.22997,843.14961 L 437.40767,843.14961 L 437.40767,835.56076 L 437.40767,827.97191 L 444.99652,827.97191 L 452.58537,827.97191 L 452.58537,835.56076 L 452.58537,843.14961 L 460.17421,843.14961 L 467.76305,843.14961 L 467.76305,850.73846 L 467.76305,858.32731 L 475.35191,858.32731 L 482.94075,858.32731 L 482.94075,835.56076 z M 619.54004,835.56076 L 619.54004,827.97191 L 627.12889,827.97191 L 634.71773,827.97191 L 634.71773,835.56076 L 634.71773,843.14961 L 627.12889,843.14961 L 619.54004,843.14961 L 619.54004,835.56076 z M 452.58537,805.20536 L 452.58537,797.61651 L 444.99652,797.61651 L 437.40767,797.61651 L 437.40767,774.84997 L 437.40767,752.08342 L 452.58537,752.08342 L 467.76305,752.08342 L 467.76305,767.26111 L 467.76305,782.43881 L 475.35191,782.43881 L 482.94075,782.43881 L 482.94075,790.02766 L 482.94075,797.61651 L 475.35191,797.61651 L 467.76305,797.61651 L 467.76305,805.20536 L 467.76305,812.79421 L 460.17421,812.79421 L 452.58537,812.79421 L 452.58537,805.20536 z M 300.80837,790.02766 L 300.80837,782.43881 L 308.39722,782.43881 L 315.98607,782.43881 L 315.98607,790.02766 L 315.98607,797.61651 L 308.39722,797.61651 L 300.80837,797.61651 L 300.80837,790.02766 z M 361.51917,790.02766 L 361.51917,782.43881 L 369.10802,782.43881 L 376.69687,782.43881 L 376.69687,790.02766 L 376.69687,797.61651 L 369.10802,797.61651 L 361.51917,797.61651 L 361.51917,790.02766 z M 558.82924,698.96148 L 558.82924,691.37264 L 551.2404,691.37264 L 543.65155,691.37264 L 543.65155,683.78379 L 543.65155,676.19493 L 551.2404,676.19493 L 558.82924,676.19493 L 558.82924,683.78379 L 558.82924,691.37264 L 566.41809,691.37264 L 574.00694,691.37264 L 574.00694,683.78379 L 574.00694,676.19493 L 581.59579,676.19493 L 589.18464,676.19493 L 589.18464,683.78379 L 589.18464,691.37264 L 581.59579,691.37264 L 574.00694,691.37264 L 574.00694,698.96148 L 574.00694,706.55032 L 566.41809,706.55032 L 558.82924,706.55032 L 558.82924,698.96148 z M 604.36234,638.25068 L 604.36234,630.66183 L 611.95118,630.66183 L 619.54004,630.66183 L 619.54004,638.25068 L 619.54004,645.83953 L 611.95118,645.83953 L 604.36234,645.83953 L 604.36234,638.25068 z M 240.09758,805.20536 L 240.09758,797.61651 L 232.50873,797.61651 L 224.91988,797.61651 L 224.91988,805.20536 L 224.91988,812.79421 L 232.50873,812.79421 L 240.09758,812.79421 L 240.09758,805.20536 z M 619.54004,774.84997 L 619.54004,752.08342 L 596.77349,752.08342 L 574.00694,752.08342 L 574.00694,774.84997 L 574.00694,797.61651 L 596.77349,797.61651 L 619.54004,797.61651 L 619.54004,774.84997 z M 589.18464,774.84997 L 589.18464,767.26111 L 596.77349,767.26111 L 604.36234,767.26111 L 604.36234,774.84997 L 604.36234,782.43881 L 596.77349,782.43881 L 589.18464,782.43881 L 589.18464,774.84997 z M 361.51917,744.49456 L 361.51917,736.90571 L 353.93032,736.90571 L 346.34147,736.90571 L 346.34147,744.49456 L 346.34147,752.08342 L 353.93032,752.08342 L 361.51917,752.08342 L 361.51917,744.49456 z M 649.89543,714.13918 L 649.89543,706.55032 L 642.30658,706.55032 L 634.71773,706.55032 L 634.71773,714.13918 L 634.71773,721.72802 L 642.30658,721.72802 L 649.89543,721.72802 L 649.89543,714.13918 z M 680.25084,714.13918 L 680.25084,706.55032 L 672.66198,706.55032 L 665.07313,706.55032 L 665.07313,714.13918 L 665.07313,721.72802 L 672.66198,721.72802 L 680.25084,721.72802 L 680.25084,714.13918 z M 574.00694,532.00678 L 574.00694,524.41793 L 566.41809,524.41793 L 558.82924,524.41793 L 558.82924,532.00678 L 558.82924,539.59564 L 566.41809,539.59564 L 574.00694,539.59564 L 574.00694,532.00678 z M 680.25084,532.00678 L 680.25084,524.41793 L 672.66198,524.41793 L 665.07313,524.41793 L 665.07313,532.00678 L 665.07313,539.59564 L 672.66198,539.59564 L 680.25084,539.59564 L 680.25084,532.00678 z M 179.38678,516.82908 L 179.38678,509.24023 L 171.79793,509.24023 L 164.20908,509.24023 L 164.20908,516.82908 L 164.20908,524.41793 L 171.79793,524.41793 L 179.38678,524.41793 L 179.38678,516.82908 z M 209.74218,516.82908 L 209.74218,509.24023 L 202.15333,509.24023 L 194.56447,509.24023 L 194.56447,516.82908 L 194.56447,524.41793 L 202.15333,524.41793 L 209.74218,524.41793 L 209.74218,516.82908 z M 133.85368,471.29598 L 133.85368,463.70713 L 141.44253,463.70713 L 149.03138,463.70713 L 149.03138,448.52943 L 149.03138,433.35174 L 141.44253,433.35174 L 133.85368,433.35174 L 133.85368,440.94058 L 133.85368,448.52943 L 126.26483,448.52943 L 118.67598,448.52943 L 118.67598,463.70713 L 118.67598,478.88483 L 126.26483,478.88483 L 133.85368,478.88483 L 133.85368,471.29598 z M 224.91988,456.11828 L 224.91988,448.52943 L 217.33103,448.52943 L 209.74218,448.52943 L 209.74218,456.11828 L 209.74218,463.70713 L 217.33103,463.70713 L 224.91988,463.70713 L 224.91988,456.11828 z M 589.18464,440.94058 L 589.18464,433.35174 L 581.59579,433.35174 L 574.00694,433.35174 L 574.00694,440.94058 L 574.00694,448.52943 L 581.59579,448.52943 L 589.18464,448.52943 L 589.18464,440.94058 z M 619.54004,433.35174 L 619.54004,418.17404 L 611.95118,418.17404 L 604.36234,418.17404 L 604.36234,433.35174 L 604.36234,448.52943 L 611.95118,448.52943 L 619.54004,448.52943 L 619.54004,433.35174 z M 665.07313,425.76288 L 665.07313,418.17404 L 672.66198,418.17404 L 680.25084,418.17404 L 680.25084,410.58519 L 680.25084,402.99633 L 672.66198,402.99633 L 665.07313,402.99633 L 665.07313,395.40749 L 665.07313,387.81864 L 657.48428,387.81864 L 649.89543,387.81864 L 649.89543,395.40749 L 649.89543,402.99633 L 657.48428,402.99633 L 665.07313,402.99633 L 665.07313,410.58519 L 665.07313,418.17404 L 657.48428,418.17404 L 649.89543,418.17404 L 649.89543,425.76288 L 649.89543,433.35174 L 657.48428,433.35174 L 665.07313,433.35174 L 665.07313,425.76288 z M 118.67598,395.40749 L 118.67598,387.81864 L 111.08713,387.81864 L 103.49828,387.81864 L 103.49828,395.40749 L 103.49828,402.99633 L 111.08713,402.99633 L 118.67598,402.99633 L 118.67598,395.40749 z M 209.74218,395.40749 L 209.74218,387.81864 L 202.15333,387.81864 L 194.56447,387.81864 L 194.56447,395.40749 L 194.56447,402.99633 L 202.15333,402.99633 L 209.74218,402.99633 L 209.74218,395.40749 z M 574.00694,380.22979 L 574.00694,372.64094 L 566.41809,372.64094 L 558.82924,372.64094 L 558.82924,380.22979 L 558.82924,387.81864 L 566.41809,387.81864 L 574.00694,387.81864 L 574.00694,380.22979 z M 224.91988,349.87439 L 224.91988,342.28554 L 217.33103,342.28554 L 209.74218,342.28554 L 209.74218,349.87439 L 209.74218,357.46324 L 217.33103,357.46324 L 224.91988,357.46324 L 224.91988,349.87439 z M 558.82924,349.87439 L 558.82924,342.28554 L 551.2404,342.28554 L 543.65155,342.28554 L 543.65155,349.87439 L 543.65155,357.46324 L 551.2404,357.46324 L 558.82924,357.46324 L 558.82924,349.87439 z M 88.320581,721.72802 L 88.320581,691.37264 L 80.73173,691.37264 L 73.14288,691.37264 L 73.14288,668.60609 L 73.14288,645.83953 L 80.73173,645.83953 L 88.320581,645.83953 L 88.320581,668.60609 L 88.320581,691.37264 L 103.49828,691.37264 L 118.67598,691.37264 L 118.67598,683.78379 L 118.67598,676.19493 L 111.08713,676.19493 L 103.49828,676.19493 L 103.49828,653.42838 L 103.49828,630.66183 L 111.08713,630.66183 L 118.67598,630.66183 L 118.67598,653.42838 L 118.67598,676.19493 L 126.26483,676.19493 L 133.85368,676.19493 L 133.85368,668.60609 L 133.85368,661.01724 L 141.44253,661.01724 L 149.03138,661.01724 L 149.03138,653.42838 L 149.03138,645.83953 L 164.20908,645.83953 L 179.38678,645.83953 L 179.38678,653.42838 L 179.38678,661.01724 L 186.97563,661.01724 L 194.56447,661.01724 L 194.56447,668.60609 L 194.56447,676.19493 L 186.97563,676.19493 L 179.38678,676.19493 L 179.38678,683.78379 L 179.38678,691.37264 L 186.97563,691.37264 L 194.56447,691.37264 L 194.56447,698.96148 L 194.56447,706.55032 L 186.97563,706.55032 L 179.38678,706.55032 L 179.38678,714.13918 L 179.38678,721.72802 L 171.79793,721.72802 L 164.20908,721.72802 L 164.20908,714.13918 L 164.20908,706.55032 L 156.62023,706.55032 L 149.03138,706.55032 L 149.03138,714.13918 L 149.03138,721.72802 L 126.26483,721.72802 L 103.49828,721.72802 L 103.49828,729.31686 L 103.49828,736.90571 L 111.08713,736.90571 L 118.67598,736.90571 L 118.67598,744.49456 L 118.67598,752.08342 L 103.49828,752.08342 L 88.320581,752.08342 L 88.320581,721.72802 z M 179.38678,698.96148 L 179.38678,691.37264 L 171.79793,691.37264 L 164.20908,691.37264 L 164.20908,698.96148 L 164.20908,706.55032 L 171.79793,706.55032 L 179.38678,706.55032 L 179.38678,698.96148 z M 149.03138,683.78379 L 149.03138,676.19493 L 164.20908,676.19493 L 179.38678,676.19493 L 179.38678,668.60609 L 179.38678,661.01724 L 164.20908,661.01724 L 149.03138,661.01724 L 149.03138,668.60609 L 149.03138,676.19493 L 141.44253,676.19493 L 133.85368,676.19493 L 133.85368,683.78379 L 133.85368,691.37264 L 141.44253,691.37264 L 149.03138,691.37264 L 149.03138,683.78379 z M 133.85368,744.49456 L 133.85368,736.90571 L 156.62023,736.90571 L 179.38678,736.90571 L 179.38678,744.49456 L 179.38678,752.08342 L 156.62023,752.08342 L 133.85368,752.08342 L 133.85368,744.49456 z M 313.43195,667.25211 C 308.40971,661.99291 305.77626,658.97643 303.15782,655.48369 C 295.03069,644.64293 287.39021,628.85869 283.33653,614.53552 C 283.06583,613.57901 282.56187,611.80038 282.21661,610.583 C 281.63875,608.54539 281.08919,606.06323 280.22128,601.57124 C 280.03649,600.61473 279.6246,598.62266 279.30603,597.14441 C 278.98746,595.66616 278.55455,593.60294 278.34398,592.55948 C 278.13346,591.51602 277.89836,590.49851 277.82162,590.29838 L 277.68202,589.9345 L 280.62871,587.60554 C 284.0422,584.90758 286.33308,583.41618 292.54316,579.84901 C 296.7871,577.41125 297.30877,577.12211 300.96647,575.18057 C 302.8795,574.16509 305.79646,572.5548 307.44861,571.60208 C 309.10077,570.6494 310.87941,569.62445 311.40114,569.32448 C 314.11482,567.76411 316.93468,565.53021 316.93468,564.94072 C 316.93468,564.46413 316.0685,564.25939 314.05215,564.25939 L 312.16996,564.25939 L 307.99112,564.86701 C 305.69278,565.2012 302.31824,565.63763 300.49217,565.83683 C 296.08697,566.31736 285.92597,567.86321 281.52005,568.72319 C 280.56353,568.90987 278.91065,569.41273 277.84695,569.84065 L 275.91299,570.61863 L 275.13485,571.4706 L 274.35674,572.32255 L 273.99235,573.58736 C 272.4792,578.83957 270.72339,586.83752 270.31324,590.34606 C 270.23192,591.04171 270.02149,592.53577 269.84564,593.66619 C 268.66969,601.22478 266.95685,614.79127 266.99116,616.27463 C 266.9992,616.62246 266.84714,621.95837 266.65324,628.13222 L 266.30067,639.35739 L 265.98823,639.67358 L 265.67579,639.98979 L 265.05313,639.19929 C 263.7925,637.59879 261.79242,632.69033 260.02827,626.86741 C 259.47504,625.04134 258.82854,622.97812 258.5916,622.28248 C 258.3547,621.58683 257.93109,620.02163 257.65027,618.80425 C 257.36945,617.58687 256.93986,615.73709 256.69562,614.69363 C 256.45136,613.65016 256.07232,611.3735 255.85326,609.63439 L 255.45497,606.47237 L 255.44416,601.09694 C 255.42209,590.10986 256.72338,567.72168 257.74156,561.57167 L 258.00331,559.99067 L 258.50968,559.04206 C 259.17863,557.78887 260.15573,556.77696 261.21324,556.24226 L 262.07362,555.80722 L 264.12893,555.4717 C 265.25936,555.28716 267.6783,554.90763 269.50437,554.62829 C 271.33043,554.34895 274.46083,553.85005 276.46081,553.51961 C 278.46079,553.18916 281.37775,552.75684 282.94295,552.55891 C 284.50815,552.36097 287.42512,551.93276 289.4251,551.60732 C 294.3558,550.805 300.46187,549.96368 306.65811,549.23289 C 307.52767,549.13033 309.71869,548.7671 311.52708,548.4257 L 314.81508,547.80498 L 316.19107,547.19631 L 317.56708,546.58764 L 317.56708,546.14456 L 317.56708,545.70149 L 317.01373,545.20926 L 316.46038,544.71704 L 313.93076,543.93321 C 310.29254,542.80585 297.63266,538.07136 288.63459,534.47304 C 286.89548,533.77758 284.04966,532.64083 282.31055,531.94693 C 277.68144,530.09996 273.95817,528.50286 270.53427,526.89548 L 268.56022,525.96877 L 268.37284,525.22209 L 268.18543,524.47542 L 268.85682,521.99611 C 269.95907,517.92576 271.0968,515.05272 274.72195,507.18492 C 277.43604,501.29448 284.93652,486.47803 286.12157,484.6661 C 286.37371,484.28062 286.95929,483.28458 287.42287,482.45268 C 288.20895,481.04205 293.32694,473.28633 294.90086,471.12065 C 296.16333,469.3835 302.18259,461.98758 303.00718,461.1603 C 303.44999,460.71605 304.87843,459.15085 306.18147,457.68207 C 307.48454,456.2133 309.75411,453.90886 311.22498,452.56111 L 313.89932,450.11064 L 314.21486,450.42618 L 314.5304,450.74171 L 313.94454,452.40233 C 313.6223,453.31568 311.80231,457.19336 309.9001,461.01941 C 305.60291,469.66251 305.89761,469.00826 302.2801,477.93622 C 297.42884,489.90902 291.32737,508.04477 290.3406,513.42473 L 289.95008,515.5539 L 290.4895,516.14993 L 291.02891,516.74597 L 293.30996,517.77408 C 294.56455,518.33954 296.32924,519.14085 297.23149,519.55475 C 298.13378,519.96865 298.9535,520.3073 299.0531,520.3073 C 299.15274,520.3073 299.83744,520.57353 300.57467,520.8989 C 303.33011,522.11504 305.73417,523.09478 306.50001,523.3137 C 307.27755,523.53596 307.61114,523.66662 310.76874,524.98555 C 311.63829,525.34877 312.91891,525.80643 313.61456,526.00258 C 314.3102,526.19872 315.16395,526.49379 315.51177,526.65829 C 317.17977,527.44715 327.31388,530.84074 329.17925,531.23509 C 329.566,531.31685 330.25115,531.52393 330.7018,531.69527 C 331.15242,531.8666 331.79646,532.00678 332.13296,532.00678 L 332.74478,532.00678 L 332.74478,531.67552 C 332.74478,531.03619 326.86725,525.54856 320.88721,520.60457 C 315.4466,516.10656 313.02418,513.90511 308.47627,509.32581 L 305.2352,506.06236 L 305.2352,505.3343 L 305.2352,504.60623 L 306.00101,502.73356 C 307.2632,499.64713 310.99514,492.64866 314.36696,487.04505 C 317.08342,482.53056 322.1542,475.9314 327.92624,469.39877 C 334.24228,462.2505 352.2764,445.2599 358.15993,440.91449 L 360.83187,438.94108 L 363.76705,437.41121 C 365.38142,436.56979 366.77698,435.88135 366.86833,435.88135 C 366.95968,435.88135 366.17426,436.77067 365.12292,437.85761 C 361.99961,441.08677 354.44266,449.51188 353.11123,451.24928 C 351.32389,453.58155 349.43193,455.91111 349.02846,456.27638 C 348.83633,456.4503 348.19849,457.30404 347.61102,458.17359 C 347.02352,459.04316 346.08518,460.32377 345.52582,461.01941 C 344.51129,462.28112 339.74834,469.40487 337.91494,472.40269 C 334.69047,477.67508 331.47599,483.96395 329.47933,488.90627 L 328.09882,492.32342 L 327.0749,495.95974 C 326.51174,497.95972 325.91263,499.94068 325.74356,500.36188 L 325.43615,501.1277 L 328.06281,503.78452 C 337.22818,513.05518 345.53727,520.39827 352.30681,525.20998 C 353.28669,525.90648 354.58644,526.84473 355.19512,527.29499 C 355.80382,527.74525 357.2518,528.63498 358.4129,529.27216 L 360.52399,530.43068 L 361.17966,529.50986 C 361.54029,529.0034 361.83537,528.43014 361.83537,528.23593 C 361.83537,528.04171 362.1105,526.85421 362.44678,525.59702 C 362.78306,524.33983 363.21578,522.38633 363.40835,521.25591 C 363.98647,517.86245 365.50493,514.31281 367.9024,510.75034 L 369.12051,508.94033 L 371.09051,506.94855 C 373.72742,504.28253 375.42634,502.94185 378.3705,501.20366 L 380.83466,499.74887 L 383.60161,498.66766 L 386.36854,497.58647 L 389.00997,497.05124 L 391.65142,496.51602 L 393.393,496.72071 C 395.35339,496.95111 397.97891,497.77481 400.09367,498.8229 L 401.51443,499.52704 L 403.66907,501.29958 L 405.82367,503.07212 L 408.03783,505.59712 L 410.25201,508.12213 L 411.26079,510.18314 L 412.2696,512.24415 L 412.2696,522.09809 L 412.2696,531.95204 L 412.48048,532.16394 L 412.69135,532.37582 L 414.17149,531.72108 C 415.72519,531.03382 418.05622,529.6786 421.75567,527.31183 C 424.97346,525.2532 436.27282,517.72354 438.67248,516.03881 C 439.8029,515.24518 441.65268,513.95945 442.7831,513.18165 C 447.20661,510.13796 454.69623,504.47106 456.42549,502.85936 L 457.57791,501.78528 L 457.9257,500.53257 L 458.27346,499.27987 L 458.27523,496.68207 L 458.27701,494.08428 L 457.81026,490.51613 C 457.55356,488.55365 457.18307,485.73851 456.98696,484.26027 C 456.79085,482.78202 456.43908,480.8611 456.20525,479.99154 C 455.97141,479.12198 455.69718,477.91251 455.59583,477.30382 C 455.49449,476.69513 455.14692,475.34337 454.82348,474.2999 C 454.50004,473.25643 453.98652,471.54894 453.6823,470.50547 C 452.29711,465.75398 446.15802,453.20223 441.85122,446.31602 C 439.24509,442.14906 436.77526,437.69487 436.77526,437.16186 L 436.77526,436.82996 L 437.25586,436.82996 C 437.76523,436.82996 439.98418,438.13677 441.04399,439.06092 C 445.27297,442.74853 448.24619,445.66966 450.0376,447.89702 C 450.80688,448.85354 451.59533,449.77843 451.78967,449.95234 C 452.57661,450.65652 456.48838,456.01935 458.98776,459.82054 C 463.60465,466.84216 468.09307,475.14766 470.74291,481.57255 C 471.38844,483.13775 472.13398,484.91414 472.39965,485.52007 C 472.66532,486.12601 473.35173,488.04694 473.92501,489.7888 C 474.49828,491.53066 475.17555,493.52499 475.43007,494.22063 C 476.0681,495.96459 476.81377,498.55627 477.42002,501.13693 L 477.93056,503.31019 L 477.76013,503.98916 C 477.66641,504.36259 477.14461,505.34012 476.60059,506.16146 L 475.61144,507.6548 L 472.3987,510.12564 C 470.6317,511.4846 468.48889,513.08636 467.63695,513.68512 C 466.78498,514.28388 465.50436,515.18994 464.79114,515.69859 C 464.07788,516.20725 462.00027,517.61052 460.17421,518.81699 C 458.34815,520.02345 456.49836,521.27826 456.06359,521.60544 C 455.62881,521.93263 454.84621,522.43216 454.32448,522.71551 C 453.32769,523.25688 447.50507,527.33819 446.4198,528.25622 C 446.07176,528.55063 445.14671,529.31757 444.36411,529.96053 C 443.58151,530.60349 442.8274,531.32693 442.68834,531.56817 L 442.43547,532.00678 L 443.25588,532.00678 C 444.90877,532.00678 453.16664,529.72114 460.80662,527.14903 C 466.79143,525.13415 474.22642,522.51059 475.1938,522.07227 C 475.71554,521.83587 476.49814,521.53806 476.93291,521.41048 C 477.36769,521.2829 477.86571,521.07218 478.03962,520.94221 C 478.21353,520.81226 478.92499,520.52656 479.62063,520.30734 C 480.73436,519.95637 482.25804,519.30027 486.03416,517.54568 L 487.07225,517.06332 L 488.15233,515.8015 L 489.23238,514.53968 L 489.86896,512.65473 L 490.50551,510.76979 L 490.37536,504.86673 C 490.19664,496.75945 489.4924,488.71077 487.82531,475.72281 C 486.80968,467.81 485.53165,460.36786 484.79344,458.06774 C 483.91421,455.32815 482.80953,448.68137 483.14363,448.14079 L 483.28994,447.90406 L 484.03943,448.39514 L 484.78893,448.88622 L 485.99919,450.67873 C 486.66485,451.6646 487.43338,452.72253 487.70703,453.02967 C 488.72061,454.1673 494.97888,465.02478 496.41318,468.13396 C 496.85443,469.09047 497.5638,470.61741 497.9896,471.52716 C 498.41537,472.4369 499.37488,475.06929 500.12185,477.37689 C 502.56549,484.92612 502.60115,485.06163 505.38595,497.38265 C 505.70038,498.77394 506.12418,500.97945 506.32772,502.28378 C 506.53123,503.58812 506.89256,505.86478 507.13065,507.34302 C 507.36872,508.82126 507.73384,511.83986 507.942,514.05102 L 508.32043,518.07131 L 507.92505,522.62883 L 507.52967,527.18636 L 504.4841,528.22398 C 502.80906,528.79468 501.08285,529.40145 500.64807,529.57235 C 498.54868,530.39761 486.49335,534.69954 480.88544,536.62464 C 478.6246,537.40074 476.32644,538.24442 475.77843,538.49948 C 475.23038,538.75455 474.63551,538.96323 474.45642,538.96323 C 474.27735,538.96323 472.44907,539.5142 470.39357,540.18761 C 468.3381,540.86102 465.16229,541.87873 463.33622,542.44918 C 461.51017,543.01963 458.78833,543.97073 457.2877,544.56274 L 454.55932,545.63912 L 453.82007,546.42602 L 453.08082,547.21291 L 453.39048,547.70377 L 453.70011,548.19465 L 454.9609,548.64127 L 456.22169,549.08789 L 459.38371,549.3973 C 461.12282,549.56747 463.11488,549.78457 463.81053,549.87975 C 464.50617,549.97493 465.6445,550.104 466.34014,550.16657 C 468.12659,550.32728 472.339,550.92542 476.77481,551.64827 C 478.86175,551.98834 481.56527,552.41135 482.78265,552.58829 C 484.00003,552.76523 486.56127,553.19523 488.47429,553.54386 C 494.32321,554.60975 496.60815,555.02339 498.75086,555.40425 C 501.24414,555.84742 505.5548,556.89939 506.7046,557.34529 L 507.5438,557.67073 L 507.73776,558.70467 L 507.93175,559.7386 L 507.62658,563.21618 C 507.45874,565.12882 507.18454,567.31991 507.01723,568.08525 C 506.84993,568.85055 506.55172,570.47277 506.35454,571.69014 C 506.00788,573.83042 505.36381,576.69676 504.11643,581.65051 C 503.78799,582.95484 503.29939,584.94692 503.03068,586.07733 C 502.762,587.20776 502.11313,589.55556 501.58874,591.29467 C 501.06438,593.03378 500.34961,595.52387 500.00033,596.82821 C 499.65108,598.13255 498.94251,600.27902 498.4257,601.59814 C 497.90887,602.91728 497.48605,604.10886 497.48605,604.24606 C 497.48605,604.48703 496.45564,606.86535 494.05551,612.16401 C 493.42532,613.5553 491.68074,617.11257 490.17868,620.06906 C 487.54573,625.25152 486.7058,626.83746 485.1548,629.55512 C 484.75778,630.25077 484.15209,631.31795 483.80883,631.92664 C 482.67369,633.93942 480.26862,637.40319 479.26708,638.46762 L 478.28113,639.51549 L 477.88238,639.51549 L 477.48361,639.51549 L 477.70461,637.27257 L 477.92563,635.02969 L 478.50472,633.3991 C 478.82323,632.50229 479.3283,630.84364 479.62711,629.71323 C 479.92593,628.5828 480.34837,627.0176 480.56592,626.235 C 481.53849,622.73613 482.96975,616.08172 483.72838,611.5316 C 484.01837,609.79249 484.52891,606.91136 484.86298,605.12911 C 485.19704,603.34684 485.46895,601.49706 485.46721,601.01849 C 485.4655,600.53989 485.67492,598.65428 485.93263,596.82821 C 486.1903,595.00214 486.61999,591.37372 486.88743,588.76505 L 487.37366,584.02202 L 487.37062,578.24119 L 487.36758,572.46035 L 486.93862,571.43367 L 486.50966,570.40699 L 484.17185,569.72039 C 482.88605,569.34276 480.9803,568.88945 479.93683,568.71304 C 474.45494,567.78628 464.63955,566.31471 460.64852,565.82127 C 459.08332,565.62773 456.29552,565.19715 454.45346,564.86442 C 452.61136,564.53164 450.54102,564.25939 449.85272,564.25939 L 448.60122,564.25939 L 448.22178,564.63883 C 448.01308,564.84753 447.84234,565.20285 447.84234,565.42842 L 447.84234,565.83857 L 448.92105,567.02525 C 450.15153,568.37881 452.00814,569.70803 460.01612,574.96865 C 463.1465,577.0251 467.41523,579.98691 469.50217,581.55049 L 473.29659,584.39334 L 475.00832,586.16628 C 475.94978,587.14142 477.00042,588.38207 477.34309,588.92328 L 477.96614,589.90731 L 477.80035,591.73559 L 477.63457,593.5639 L 477.30901,594.16838 C 477.12994,594.50087 476.65747,595.62664 476.25905,596.67011 C 475.33324,599.09494 470.74809,608.12889 468.5245,611.90928 C 467.58395,613.50828 466.81445,614.89122 466.81445,614.98247 C 466.81445,615.07373 466.13857,616.20804 465.31249,617.50321 C 464.48641,618.79837 462.81449,621.44549 461.59712,623.3857 C 459.41663,626.86095 455.931,631.91943 455.03729,632.9056 C 454.78575,633.18316 454.12277,634.07479 453.56394,634.88698 C 453.00515,635.69918 452.28744,636.61038 451.96906,636.91194 C 451.65067,637.21347 450.86051,638.17163 450.21319,639.04119 C 449.56582,639.91074 448.86142,640.76448 448.64783,640.9384 C 448.43423,641.1123 447.50441,642.17949 446.58151,643.30991 C 445.65865,644.44034 444.73363,645.50752 444.52594,645.68143 C 444.31826,645.85534 443.54664,646.70908 442.81121,647.57864 C 437.48011,653.88213 422.46481,667.91822 418.11558,670.66377 L 416.79477,671.49756 L 416.6152,671.31796 L 416.4356,671.13838 L 416.76188,670.42225 C 417.09766,669.68531 418.71994,667.50769 424.35731,660.22673 C 426.08052,658.00111 433.30007,648.39906 434.21975,647.10958 C 435.54138,645.25655 439.30488,639.5244 439.30488,639.36444 C 439.30488,639.28036 439.79019,638.45292 440.38332,637.52573 C 442.33302,634.47782 446.32612,626.74984 447.53179,623.69099 C 447.89466,622.77041 448.44353,621.4366 448.75151,620.72695 C 450.87199,615.84087 452.88269,610.10075 454.68621,603.78466 L 455.27309,601.72934 L 455.25142,599.51593 L 455.22973,597.30251 L 454.34392,595.5634 L 453.45811,593.82429 L 451.46826,591.87092 C 447.78286,588.25312 434.53149,578.64829 426.65679,573.88715 C 425.52637,573.20368 424.53034,572.55521 424.44338,572.44609 C 424.17923,572.11458 420.66249,570.58344 420.16529,570.58344 L 419.70035,570.58344 L 419.68075,572.5597 C 419.63885,576.78049 419.75186,580.65558 419.99195,583.23152 L 420.24244,585.91924 L 419.95543,591.45277 L 419.66845,596.98631 L 418.74488,601.57124 C 417.65259,606.99382 417.39274,608.045 416.16553,612.00591 C 414.32286,617.95326 410.4299,626.67642 407.83983,630.66183 C 407.33122,631.44443 406.69695,632.47269 406.43033,632.9468 C 405.51954,634.56648 402.47002,638.65108 399.90013,641.69355 L 397.33291,644.73282 L 394.36921,647.37071 L 391.40548,650.00862 L 388.39897,651.99604 C 384.43756,654.61464 380.22654,656.64227 377.96167,657.02161 C 377.5269,657.09444 376.60201,657.30104 375.90636,657.48074 C 375.21072,657.66043 372.82779,657.97955 370.61096,658.18986 L 366.58036,658.57226 L 363.02211,658.18037 L 359.46386,657.7885 L 357.81243,657.32763 C 355.79598,656.76489 354.704,656.23513 351.99386,654.5047 L 349.89928,653.16735 L 346.77261,650.05678 L 343.64594,646.94623 L 342.19046,644.89092 L 340.73495,642.83561 L 339.13409,639.67358 L 337.53318,636.51157 L 336.39679,633.20071 C 335.11256,629.45928 334.25142,625.81758 333.66543,621.65007 L 333.26528,618.80425 L 333.29257,611.21541 L 333.31983,603.62655 L 333.82426,599.99023 C 334.1017,597.99025 334.46255,595.78474 334.62612,595.0891 C 334.78972,594.39345 335.00699,593.32627 335.10893,592.71758 C 335.2109,592.10889 335.4983,590.97056 335.74762,590.18797 C 335.99695,589.40536 336.26275,588.40063 336.33829,587.95523 C 336.55748,586.66298 338.32442,581.04878 339.21816,578.80469 C 341.03143,574.25192 341.28223,573.55472 341.28223,573.0666 L 341.28223,572.55809 L 340.82311,572.17703 L 340.36399,571.79601 L 339.69845,572.00723 C 338.65105,572.33965 332.24142,575.46645 329.10845,577.17334 C 324.19581,579.8498 323.90054,580.01966 316.72156,584.29933 C 314.44816,585.65461 307.74449,589.86072 306.66545,590.60889 C 306.14776,590.96785 304.93828,591.79876 303.97773,592.45542 C 303.01717,593.11204 301.85437,593.97325 301.39369,594.3692 L 300.5561,595.0891 L 300.01145,596.67011 L 299.46676,598.25111 L 299.13683,602.811 L 298.80691,607.37092 L 299.17712,614.35238 L 299.54729,621.33387 L 299.84481,622.91488 C 300.00847,623.78444 300.29141,625.49193 300.47361,626.7093 C 300.9611,629.96675 301.0871,630.58458 301.79553,633.19144 C 304.26826,642.29076 308.50439,652.7087 314.87794,665.36501 C 316.65139,668.88671 318.01754,671.76355 317.9138,671.75799 C 317.81005,671.75242 315.79322,669.72478 313.43195,667.25211 z M 73.14288,623.07298 L 73.14288,615.48413 L 80.73173,615.48413 L 88.320581,615.48413 L 88.320581,623.07298 L 88.320581,630.66183 L 80.73173,630.66183 L 73.14288,630.66183 L 73.14288,623.07298 z M 680.25084,623.07298 L 680.25084,615.48413 L 672.66198,615.48413 L 665.07313,615.48413 L 665.07313,607.89528 L 665.07313,600.30643 L 680.25084,600.30643 L 695.42854,600.30643 L 695.42854,615.48413 L 695.42854,630.66183 L 687.83968,630.66183 L 680.25084,630.66183 L 680.25084,623.07298 z M 118.67598,607.89528 L 118.67598,600.30643 L 126.26483,600.30643 L 133.85368,600.30643 L 133.85368,607.89528 L 133.85368,615.48413 L 126.26483,615.48413 L 118.67598,615.48413 L 118.67598,607.89528 z M 73.14288,516.82908 L 73.14288,509.24023 L 80.73173,509.24023 L 88.320581,509.24023 L 88.320581,516.82908 L 88.320581,524.41793 L 80.73173,524.41793 L 73.14288,524.41793 L 73.14288,516.82908 z M 528.47385,486.47368 L 528.47385,478.88483 L 520.885,478.88483 L 513.29615,478.88483 L 513.29615,475.14212 C 513.29615,473.08362 513.20192,466.25365 513.08679,459.96442 L 512.8774,448.52943 L 520.67564,448.52943 L 528.47385,448.52943 L 528.47385,440.94058 L 528.47385,433.35174 L 536.0627,433.35174 L 543.65155,433.35174 L 543.65155,440.94058 L 543.65155,448.52943 L 536.0627,448.52943 L 528.47385,448.52943 L 528.47385,463.70713 L 528.47385,478.88483 L 536.0627,478.88483 L 543.65155,478.88483 L 543.65155,486.47368 L 543.65155,494.06253 L 536.0627,494.06253 L 528.47385,494.06253 L 528.47385,486.47368 z M 634.71773,471.29598 L 634.71773,463.70713 L 642.30658,463.70713 L 649.89543,463.70713 L 649.89543,471.29598 L 649.89543,478.88483 L 642.30658,478.88483 L 634.71773,478.88483 L 634.71773,471.29598 z M 665.07313,471.29598 L 665.07313,463.70713 L 672.66198,463.70713 L 680.25084,463.70713 L 680.25084,471.29598 L 680.25084,478.88483 L 672.66198,478.88483 L 665.07313,478.88483 L 665.07313,471.29598 z M 270.45297,433.35174 L 270.45297,418.17404 L 255.27528,418.17404 L 240.09758,418.17404 L 240.09758,402.99633 L 240.09758,387.81864 L 247.68642,387.81864 L 255.27528,387.81864 L 255.27528,380.22979 L 255.27528,372.64094 L 262.86413,372.64094 L 270.45297,372.64094 L 270.45297,365.05209 L 270.45297,357.46324 L 262.86413,357.46324 L 255.27528,357.46324 L 255.27528,349.87439 L 255.27528,342.28554 L 262.86413,342.28554 L 270.45297,342.28554 L 270.45297,334.69669 L 270.45297,327.10784 L 262.86413,327.10784 L 255.27528,327.10784 L 255.27528,311.93014 L 255.27528,296.75244 L 247.68642,296.75244 L 240.09758,296.75244 L 240.09758,289.16359 L 240.09758,281.57474 L 278.04182,281.57474 L 315.98607,281.57474 L 315.98607,289.16359 L 315.98607,296.75244 L 293.21952,296.75244 L 270.45297,296.75244 L 270.45297,304.34129 L 270.45297,311.93014 L 278.04182,311.93014 L 285.63067,311.93014 L 285.63067,327.10784 L 285.63067,342.28554 L 293.21952,342.28554 L 300.80837,342.28554 L 300.80837,327.10784 L 300.80837,311.93014 L 315.98607,311.93014 L 331.16377,311.93014 L 331.16377,334.69669 L 331.16377,357.46324 L 338.75262,357.46324 L 346.34147,357.46324 L 346.34147,327.10784 L 346.34147,296.75244 L 338.75262,296.75244 L 331.16377,296.75244 L 331.16377,273.98589 L 331.16377,251.21934 L 338.75262,251.21934 L 346.34147,251.21934 L 346.34147,266.39704 L 346.34147,281.57474 L 353.93032,281.57474 L 361.51917,281.57474 L 361.51917,273.98589 L 361.51917,266.39704 L 369.10802,266.39704 L 376.69687,266.39704 L 376.69687,281.57474 L 376.69687,296.75244 L 384.28572,296.75244 L 391.87456,296.75244 L 391.87456,311.93014 L 391.87456,327.10784 L 399.46342,327.10784 L 407.05226,327.10784 L 407.05226,334.69669 L 407.05226,342.28554 L 414.64112,342.28554 L 422.22997,342.28554 L 422.22997,311.93014 L 422.22997,281.57474 L 414.64112,281.57474 L 407.05226,281.57474 L 407.05226,273.98589 L 407.05226,266.39704 L 399.46342,266.39704 L 391.87456,266.39704 L 391.87456,258.80819 L 391.87456,251.21934 L 414.64112,251.21934 L 437.40767,251.21934 L 437.40767,266.39704 L 437.40767,281.57474 L 444.99652,281.57474 L 452.58537,281.57474 L 452.58537,289.16359 L 452.58537,296.75244 L 444.99652,296.75244 L 437.40767,296.75244 L 437.40767,304.34129 L 437.40767,311.93014 L 444.99652,311.93014 L 452.58537,311.93014 L 452.58537,319.51899 L 452.58537,327.10784 L 460.17421,327.10784 L 467.76305,327.10784 L 467.76305,319.51899 L 467.76305,311.93014 L 482.94075,311.93014 L 498.11846,311.93014 L 498.11846,296.75244 L 498.11846,281.57474 L 505.7073,281.57474 L 513.29615,281.57474 L 513.29615,273.98589 L 513.29615,266.39704 L 498.11846,266.39704 L 482.94075,266.39704 L 482.94075,258.80819 L 482.94075,251.21934 L 505.7073,251.21934 L 528.47385,251.21934 L 528.47385,266.39704 L 528.47385,281.57474 L 536.0627,281.57474 L 543.65155,281.57474 L 543.65155,289.16359 L 543.65155,296.75244 L 528.47385,296.75244 L 513.29615,296.75244 L 513.29615,304.34129 L 513.29615,311.93014 L 505.7073,311.93014 L 498.11846,311.93014 L 498.11846,319.51899 L 498.11846,327.10784 L 505.7073,327.10784 L 513.29615,327.10784 L 513.29615,342.28554 L 513.29615,357.46324 L 505.7073,357.46324 L 498.11846,357.46324 L 498.11846,372.64094 L 498.11846,387.81864 L 505.7073,387.81864 L 513.29615,387.81864 L 513.29615,380.22979 L 513.29615,372.64094 L 520.885,372.64094 L 528.47385,372.64094 L 528.47385,380.22979 L 528.47385,387.81864 L 520.885,387.81864 L 513.29615,387.81864 L 513.29615,395.40749 L 513.29615,402.99633 L 505.7073,402.99633 L 498.11846,402.99633 L 498.11846,410.58519 L 498.11846,418.17404 L 490.53533,418.17404 L 482.9522,418.17404 L 482.86742,425.68383 L 482.78265,433.19363 L 475.35191,433.27847 L 467.92116,433.36331 L 468.01114,425.76867 L 468.10117,418.17404 L 475.52095,418.17404 L 482.94075,418.17404 L 482.94075,410.58519 L 482.94075,402.99633 L 490.5296,402.99633 L 498.11846,402.99633 L 498.11846,395.40749 L 498.11846,387.81864 L 482.94075,387.81864 L 467.76305,387.81864 L 467.76305,380.22979 L 467.76305,372.64094 L 475.35191,372.64094 L 482.94075,372.64094 L 482.94075,365.05209 L 482.94075,357.46324 L 475.35191,357.46324 L 467.76305,357.46324 L 467.76305,349.87439 L 467.76305,342.28554 L 460.17421,342.28554 L 452.58537,342.28554 L 452.58537,349.87439 L 452.58537,357.46324 L 444.99652,357.46324 L 437.40767,357.46324 L 437.40767,349.87439 L 437.40767,342.28554 L 429.81882,342.28554 L 422.22997,342.28554 L 422.22997,349.87439 L 422.22997,357.46324 L 414.64112,357.46324 L 407.05226,357.46324 L 407.05226,349.87439 L 407.05226,342.28554 L 399.46342,342.28554 L 391.87456,342.28554 L 391.87456,349.87439 L 391.87456,357.46324 L 384.28572,357.46324 L 376.69687,357.46324 L 376.69687,365.05209 L 376.69687,372.64094 L 384.28572,372.64094 L 391.87456,372.64094 L 391.87456,387.81864 L 391.87456,402.99633 L 384.28572,402.99633 L 376.69687,402.99633 L 376.69687,387.81864 L 376.69687,372.64094 L 369.10802,372.64094 L 361.51917,372.64094 L 361.51917,365.05209 L 361.51917,357.46324 L 353.93032,357.46324 L 346.34147,357.46324 L 346.34147,365.05209 L 346.34147,372.64094 L 338.75262,372.64094 L 331.16377,372.64094 L 331.16377,380.22979 L 331.16377,387.81864 L 323.57492,387.81864 L 315.98607,387.81864 L 315.98607,395.40749 L 315.98607,402.99633 L 308.39722,402.99633 L 300.80837,402.99633 L 300.80837,395.40749 L 300.80837,387.81864 L 308.39722,387.81864 L 315.98607,387.81864 L 315.98607,365.05209 L 315.98607,342.28554 L 308.39722,342.28554 L 300.80837,342.28554 L 300.80837,349.87439 L 300.80837,357.46324 L 293.21952,357.46324 L 285.63067,357.46324 L 285.63067,402.99633 L 285.63067,448.52943 L 278.04182,448.52943 L 270.45297,448.52943 L 270.45297,433.35174 z M 270.45297,395.40749 L 270.45297,387.81864 L 262.86413,387.81864 L 255.27528,387.81864 L 255.27528,395.40749 L 255.27528,402.99633 L 262.86413,402.99633 L 270.45297,402.99633 L 270.45297,395.40749 z M 285.63067,349.87439 L 285.63067,342.28554 L 278.04182,342.28554 L 270.45297,342.28554 L 270.45297,349.87439 L 270.45297,357.46324 L 278.04182,357.46324 L 285.63067,357.46324 L 285.63067,349.87439 z M 376.69687,349.87439 L 376.69687,342.28554 L 384.28572,342.28554 L 391.87456,342.28554 L 391.87456,334.69669 L 391.87456,327.10784 L 384.28572,327.10784 L 376.69687,327.10784 L 376.69687,311.93014 L 376.69687,296.75244 L 369.10802,296.75244 L 361.51917,296.75244 L 361.51917,311.93014 L 361.51917,327.10784 L 369.10802,327.10784 L 376.69687,327.10784 L 376.69687,334.69669 L 376.69687,342.28554 L 369.10802,342.28554 L 361.51917,342.28554 L 361.51917,349.87439 L 361.51917,357.46324 L 369.10802,357.46324 L 376.69687,357.46324 L 376.69687,349.87439 z M 498.11846,349.87439 L 498.11846,342.28554 L 490.5296,342.28554 L 482.94075,342.28554 L 482.94075,349.87439 L 482.94075,357.46324 L 490.5296,357.46324 L 498.11846,357.46324 L 498.11846,349.87439 z M 452.58537,334.69669 L 452.58537,327.10784 L 444.99652,327.10784 L 437.40767,327.10784 L 437.40767,334.69669 L 437.40767,342.28554 L 444.99652,342.28554 L 452.58537,342.28554 L 452.58537,334.69669 z M 315.98607,425.76288 L 315.98607,418.17404 L 323.57492,418.17404 L 331.16377,418.17404 L 331.16377,410.58519 L 331.16377,402.99633 L 338.75262,402.99633 L 346.34147,402.99633 L 346.34147,410.58519 L 346.34147,418.17404 L 338.79901,418.17404 L 331.25655,418.17404 L 331.05206,420.59326 C 330.93958,421.92383 330.84757,425.33881 330.84757,428.1821 L 330.84757,433.35174 L 323.41682,433.35174 L 315.98607,433.35174 L 315.98607,425.76288 z M 437.40767,410.58519 L 437.40767,402.99633 L 422.22997,402.99633 L 407.05226,402.99633 L 407.05226,387.81864 L 407.05226,372.64094 L 414.64112,372.64094 L 422.22997,372.64094 L 422.22997,380.22979 L 422.22997,387.81864 L 429.81882,387.81864 L 437.40767,387.81864 L 437.40767,380.22979 L 437.40767,372.64094 L 444.99652,372.64094 L 452.58537,372.64094 L 452.58537,380.22979 L 452.58537,387.81864 L 444.99652,387.81864 L 437.40767,387.81864 L 437.40767,395.40749 L 437.40767,402.99633 L 452.58537,402.99633 L 467.76305,402.99633 L 467.76305,410.26898 L 467.76305,417.54163 L 453.23643,417.54163 L 438.70979,417.54163 L 438.51437,417.85783 C 438.40689,418.03174 438.1139,418.17404 437.86332,418.17404 L 437.40767,418.17404 L 437.40767,410.58519 z M 73.14288,304.34129 L 73.14288,251.21934 L 126.26483,251.21934 L 179.38678,251.21934 L 179.38678,304.34129 L 179.38678,357.46324 L 126.26483,357.46324 L 73.14288,357.46324 L 73.14288,304.34129 z M 164.20908,304.34129 L 164.20908,266.39704 L 126.26483,266.39704 L 88.320581,266.39704 L 88.320581,304.34129 L 88.320581,342.28554 L 126.26483,342.28554 L 164.20908,342.28554 L 164.20908,304.34129 z M 103.49828,304.34129 L 103.49828,281.57474 L 126.26483,281.57474 L 149.03138,281.57474 L 149.03138,304.34129 L 149.03138,327.10784 L 126.26483,327.10784 L 103.49828,327.10784 L 103.49828,304.34129 z M 589.18464,304.34129 L 589.18464,251.21934 L 642.30658,251.21934 L 695.42854,251.21934 L 695.42854,304.34129 L 695.42854,357.46324 L 642.30658,357.46324 L 589.18464,357.46324 L 589.18464,304.34129 z M 680.25084,304.34129 L 680.25084,266.39704 L 642.30658,266.39704 L 604.36234,266.39704 L 604.36234,304.34129 L 604.36234,342.28554 L 642.30658,342.28554 L 680.25084,342.28554 L 680.25084,304.34129 z M 619.54004,304.34129 L 619.54004,281.57474 L 642.30658,281.57474 L 665.07313,281.57474 L 665.07313,304.34129 L 665.07313,327.10784 L 642.30658,327.10784 L 619.54004,327.10784 L 619.54004,304.34129 z M 194.56447,273.98589 L 194.56447,251.21934 L 240.09758,251.21934 L 285.63067,251.21934 L 285.63067,258.80819 L 285.63067,266.39704 L 247.68642,266.39704 L 209.74218,266.39704 L 209.74218,273.98589 L 209.74218,281.57474 L 217.33103,281.57474 L 224.91988,281.57474 L 224.91988,289.16359 L 224.91988,296.75244 L 209.74218,296.75244 L 194.56447,296.75244 L 194.56447,273.98589 z M 467.76305,289.16359 L 467.76305,281.57474 L 475.35191,281.57474 L 482.94075,281.57474 L 482.94075,289.16359 L 482.94075,296.75244 L 475.35191,296.75244 L 467.76305,296.75244 L 467.76305,289.16359 z M 558.82924,273.98589 L 558.82924,266.39704 L 566.41809,266.39704 L 574.00694,266.39704 L 574.00694,273.98589 L 574.00694,281.57474 L 566.41809,281.57474 L 558.82924,281.57474 L 558.82924,273.98589 z M 300.80837,258.80819 L 300.80837,251.21934 L 308.39722,251.21934 L 315.98607,251.21934 L 315.98607,258.80819 L 315.98607,266.39704 L 308.39722,266.39704 L 300.80837,266.39704 L 300.80837,258.80819 z"
       id="path2470" />
  </g>
</svg>
