<?xml version="1.0" encoding="UTF-8" standalone="no"?>
<!-- Created with Inkscape (http://www.inkscape.org/) -->
<svg
   xmlns:dc="http://purl.org/dc/elements/1.1/"
   xmlns:cc="http://web.resource.org/cc/"
   xmlns:rdf="http://www.w3.org/1999/02/22-rdf-syntax-ns#"
   xmlns:svg="http://www.w3.org/2000/svg"
   xmlns="http://www.w3.org/2000/svg"
   xmlns:sodipodi="http://sodipodi.sourceforge.net/DTD/sodipodi-0.dtd"
   xmlns:inkscape="http://www.inkscape.org/namespaces/inkscape"
   width="210mm"
   height="297mm"
   id="svg2171"
   sodipodi:version="0.32"
   inkscape:version="0.45.1"
   sodipodi:docbase="/home/hacker"
   sodipodi:docname="slitaz-logo-.svg"
   inkscape:output_extension="org.inkscape.output.svg.inkscape">
  <defs
     id="defs2173" />
  <sodipodi:namedview
     id="base"
     pagecolor="#ffffff"
     bordercolor="#666666"
     borderopacity="1.0"
     inkscape:pageopacity="0.0"
     inkscape:pageshadow="2"
     inkscape:zoom="0.35"
     inkscape:cx="375"
     inkscape:cy="520"
     inkscape:document-units="px"
     inkscape:current-layer="layer1"
     inkscape:window-width="1280"
     inkscape:window-height="756"
     inkscape:window-x="0"
     inkscape:window-y="0" />
  <metadata
     id="metadata2176">
    <rdf:RDF>
      <cc:Work
         rdf:about="">
        <dc:format>image/svg+xml</dc:format>
        <dc:type
           rdf:resource="http://purl.org/dc/dcmitype/StillImage" />
      </cc:Work>
    </rdf:RDF>
  </metadata>
  <g
     inkscape:label="Calque 1"
     inkscape:groupmode="layer"
     id="layer1">
    <path
       style="fill:#000000"
       d="M -27.772016,891.4229 C -58.068786,857.43063 -91.075166,777.82356 -91.449846,737.84026 C -91.548376,727.32502 -78.783246,717.56096 -30.612336,691.30549 C -17.474296,684.14463 -7.6623457,676.76907 -8.8079957,674.91534 C -9.9536457,673.06161 -12.044046,672.25754 -13.453296,673.12849 C -14.862496,673.99944 -33.001856,676.62341 -53.762846,678.95955 C -74.523906,681.2957 -93.883916,684.97451 -96.785086,687.1347 C -104.35841,692.77371 -116.50034,754.70561 -119.34098,802.1846 L -121.7682,842.75306 L -127.91839,828.85896 C -135.50208,811.72644 -144.45578,761.83801 -144.45578,736.71549 C -144.45578,711.57705 -137.67736,663.66938 -133.51616,659.39808 C -129.94265,655.72995 -37.792536,640.29158 -18.046876,640.05289 C -3.7202857,639.87972 -4.5364157,632.97603 -19.443246,628.24063 C -45.414286,619.99049 -116.23425,589.41556 -116.23425,586.45333 C -116.23425,580.40097 -81.701916,505.66608 -69.931706,486.24537 C -57.499126,465.7317 -17.734676,419.74228 -14.889906,422.58701 C -13.946116,423.53081 -17.898996,432.73138 -23.674076,443.0327 C -35.138406,463.48223 -62.686816,538.03474 -65.746836,556.89156 C -68.015426,570.87109 -67.171396,571.45654 -19.941776,588.66483 C -2.0842157,595.17128 15.304554,601.59587 18.699954,602.94172 C 32.531014,608.42393 23.360634,596.53028 -3.1619957,574.58758 C -18.581496,561.83074 -32.151536,548.38724 -33.317656,544.71311 C -38.435626,528.58779 25.691734,444.18816 68.408974,410.82815 C 97.733444,387.9272 99.708524,388.71284 77.550074,414.46429 C 42.683744,454.98409 24.167984,485.55242 14.087954,519.23595 L 9.5568143,534.37726 L 26.916274,552.06711 C 46.323644,571.84388 78.387684,597.57846 83.621194,597.57846 C 85.500464,597.57846 89.111724,589.24429 91.646194,579.05808 C 95.336164,564.22795 99.991054,556.95223 115.00791,542.54323 L 133.7615,524.54879 L 152.11135,397.90791 C 162.20376,328.25545 172.02874,269.28271 173.94462,266.85742 C 176.55685,263.55067 198.44254,262.4478 261.45251,262.4478 C 307.66593,262.4478 346.17475,263.6384 347.0276,265.09357 C 347.88041,266.54875 343.26017,304.25095 336.76032,348.87625 C 330.26048,393.50154 324.89398,431.99748 324.83482,434.42277 C 324.62401,443.06007 318.08522,438.57698 305.10702,420.89714 L 291.94132,402.96186 L 299.06405,352.98908 C 302.98151,325.50402 305.50226,301.82566 304.6657,300.37049 C 303.82911,298.91532 281.12087,297.72472 254.20289,297.72472 C 210.6069,297.72472 205.07089,298.39904 203.51963,303.89818 C 202.56179,307.29358 194.94279,358.9543 186.58851,418.69977 L 171.3989,527.32788 L 182.7157,536.1846 C 196.41581,546.90656 202.60094,566.81188 199.22586,589.31851 C 196.82661,605.31793 196.84562,605.35554 205.0983,600.93884 C 229.15892,588.06199 290.74512,544.80483 297.58058,535.98077 C 301.97389,530.30934 297.66359,492.49234 289.72445,467.05391 C 285.78849,454.44242 276.14668,433.17664 268.2982,419.79664 C 260.44969,406.4166 254.77628,394.72128 255.69055,393.80701 C 259.16346,390.3341 291.9022,428.07663 307.8002,453.88105 C 328.87124,488.08199 345.45545,538.45333 338.43125,546.917 C 335.80509,550.08131 317.00039,563.84527 296.64299,577.50361 C 276.28557,591.16191 261.35369,602.91166 263.46103,603.6141 C 265.56837,604.31653 289.07158,597.46388 315.69037,588.38594 C 354.33648,575.20627 364.69456,570.2856 367.09783,563.96454 C 371.16862,553.25754 364.83165,467.79713 358.01681,441.49776 C 355.01189,429.9014 353.26283,419.70393 354.13004,418.83672 C 356.49663,416.47013 368.32332,434.34205 380.73904,459.04693 C 394.22155,485.87446 406.03826,534.54267 406.95056,567.00128 L 407.62795,591.10328 L 365.29565,606.62008 C 342.01288,615.1543 314.62917,624.59285 304.44296,627.59468 C 294.25675,630.59646 285.92258,634.29104 285.92258,635.80484 C 285.92258,637.31869 310.9251,642.28095 341.48373,646.83212 C 372.04235,651.38331 399.87877,656.53596 403.34244,658.28248 C 410.79373,662.03976 410.12619,667.4409 394.7343,727.92984 C 384.92778,766.46881 369.14414,803.21892 350.81203,830.19701 C 341.17523,844.37883 340.16292,839.68158 347.58452,815.22119 C 353.69557,795.08005 363.5318,727.25647 363.5318,705.25998 C 363.5318,696.71016 361.89403,688.70265 359.89231,687.46553 C 357.89056,686.2284 341.61909,682.98825 323.73348,680.26522 C 267.32724,671.67755 262.84273,674.14087 297.05139,694.92151 C 323.63068,711.06758 342.36565,727.15435 342.36565,733.83054 C 342.36565,743.91222 310.72903,801.42242 289.19324,830.48925 C 267.13382,860.26285 237.33152,891.37978 217.1508,905.70955 L 206.54953,913.2373 L 213.60491,904.1495 C 246.98523,861.15343 257.16505,845.69418 270.29463,818.05922 C 288.95142,778.79065 297.48347,748.16517 291.71953,741.15537 C 281.70361,728.97453 224.4092,689.3376 216.7805,689.31167 C 214.16736,689.30278 213.42602,697.64835 214.50976,714.87424 C 216.61703,748.36808 211.00885,776.95099 196.21201,808.13155 C 148.07155,909.57526 48.133354,908.59651 28.231394,806.48641 C 22.769214,778.46194 25.259664,750.95437 36.208624,718.3765 C 40.940924,704.29586 44.093834,692.05632 43.215084,691.17758 C 41.141264,689.10379 25.922094,696.88923 -6.8758057,716.80184 C -48.698526,742.19367 -49.218156,742.87141 -49.146856,771.93222 C -49.057826,808.20426 -40.811246,841.85093 -22.926696,878.91187 C -14.265926,896.85899 -7.7781857,911.54302 -8.5094757,911.54302 C -9.2408057,911.54302 -17.908976,902.489 -27.772016,891.4229 z M -500.75262,679.9302 C -585.40379,663.48654 -636.60579,625.13464 -654.05829,565.09908 C -659.95949,544.80018 -662.37209,502.77835 -658.03859,495.7671 C -655.22139,491.20855 -484.20528,489.95893 -477.4494,494.4475 C -475.3042,495.87297 -472.47218,502.89653 -471.15599,510.05545 C -466.47722,535.50841 -438.80918,547.99517 -396.71535,543.65072 C -374.1787,541.32473 -356.78576,532.91556 -352.82452,522.43031 C -346.03795,504.46678 -363.49191,493.6762 -425.45616,477.5265 C -509.18098,455.70536 -558.37359,435.82975 -587.82279,411.92438 C -627.82779,379.45033 -634.98129,309.36014 -604.73199,246.24456 C -580.69719,196.09525 -524.32395,156.02331 -453.12878,138.4801 C -409.99605,127.8518 -322.43064,126.93951 -280.2719,136.67929 C -202.29652,154.69359 -157.42026,197.7358 -147.57115,263.95646 C -144.58592,284.02779 -144.56038,293.38443 -147.47333,299.77766 L -151.41616,308.43127 L -238.39186,307.4876 C -332.83204,306.46296 -327.05015,307.78079 -333.65681,285.77456 C -335.53777,279.50995 -341.44736,273.05871 -349.00685,269.01802 C -365.11676,260.40711 -399.23589,260.20807 -416.08802,268.62673 C -426.6524,273.90423 -428.43494,276.56736 -428.43494,287.07282 C -428.43494,297.75922 -426.60584,300.35144 -414.32418,307.06855 C -406.56326,311.31328 -374.0203,321.45631 -342.0065,329.60863 C -246.59832,353.90438 -218.62867,365.80173 -191.36667,393.68516 C -167.59941,417.99399 -160.29134,437.89701 -160.54061,477.63699 C -161.13689,572.69886 -222.50313,643.2735 -329.65958,672.13386 C -353.01008,678.42282 -369.44947,679.8994 -424.90725,680.689 C -461.77163,681.21389 -495.90204,680.87241 -500.75262,679.9302 z M 775.13431,664.7176 C 725.43227,648.83652 702.19018,617.30492 702.19018,565.75731 C 702.19018,536.66253 712.47845,502.12576 726.7075,483.45493 C 755.62028,445.51665 802.96549,427.50324 908.56015,414.26558 C 976.09552,405.79915 992.04282,401.85431 1002.127,391.12018 C 1017.3581,374.90737 1001.3262,361.2171 967.12257,361.22864 C 945.60366,361.2359 927.48279,370.65188 921.10776,385.13887 C 918.30782,391.50166 912.7517,397.50664 908.76088,398.48325 C 904.76998,399.45985 867.37437,399.81001 825.65942,399.26142 L 749.81405,398.26393 L 750.818,384.15316 C 752.25959,363.89077 770.34881,329.00519 788.89456,310.72144 C 830.60369,269.60147 915.30414,247.58642 1010.0062,253.2509 C 1124.6723,260.10951 1174.2338,288.07786 1183.4121,351.10667 C 1185.1036,362.7224 1180.5888,403.28535 1167.7994,491.37823 L 1149.8071,615.30857 L 1157.666,629.2916 C 1164.2727,641.04661 1164.8742,644.70295 1161.4407,652.2386 L 1157.3564,661.20257 L 1071.9058,660.25782 L 986.45506,659.31307 L 984.07537,647.66904 C 982.76655,641.26483 980.98862,635.31795 980.12437,634.45374 C 979.26019,633.58953 969.94827,637.53631 959.43126,643.22436 C 948.91425,648.9124 926.24154,657.63738 909.04748,662.61315 C 869.03757,674.1916 807.79635,675.15398 775.13431,664.7176 z M 948.39105,560.42993 C 961.01979,556.67961 969.19055,551.56213 975.14504,543.6734 C 984.40122,531.41068 994.0214,503.71538 990.31295,500.00692 C 989.0598,498.75378 977.29638,500.49784 964.17198,503.88255 C 900.96999,520.18204 885.63019,528.1717 885.63019,544.79065 C 885.63019,564.16153 912.92338,570.9627 948.39105,560.42993 z M 489.59199,657.2386 C 453.88378,648.82584 433.04686,628.85886 426.27271,596.56287 C 422.62163,579.15622 423.7689,566.1697 436.98395,475.31912 C 445.12413,419.35716 451.77073,372.37949 451.75418,370.92432 C 451.73763,369.46915 440.56205,368.27855 426.91955,368.27855 C 407.98421,368.27855 401.6283,367.01024 400.05808,362.9184 C 397.44417,356.10664 409.36879,272.69999 413.77071,267.00572 C 415.64731,264.57822 427.92963,262.30109 442.31228,261.71419 L 467.55968,260.68396 L 475.50782,207.76859 C 479.8793,178.66513 484.20375,152.86889 485.11774,150.4436 C 486.38359,147.08474 506.93109,146.03399 571.34669,146.03399 C 617.8586,146.03399 656.71252,147.32636 657.68877,148.90595 C 658.665,150.48551 656.41398,172.3131 652.68651,197.41171 C 648.95901,222.51028 645.87278,247.41102 645.82818,252.74666 L 645.74712,262.4478 L 681.02403,262.4478 C 722.4815,262.4478 719.57951,256.60217 709.66991,320.15075 C 705.66273,345.84818 701.26222,363.17292 698.25913,365.07481 C 695.57065,366.77745 678.81305,368.19484 661.02011,368.22454 L 628.66924,368.27855 L 626.73826,377.9797 C 625.67621,383.31533 620.71197,416.61491 615.70664,451.97874 C 609.21244,497.86153 607.62865,518.18745 610.17666,522.94846 C 614.3731,530.7896 628.14616,534.08001 656.77115,534.08001 C 671.05252,534.08001 677.46544,535.45105 677.39697,538.48963 C 677.34229,540.91492 673.62247,568.05115 669.13067,598.79238 C 663.7479,635.63146 659.27204,655.75648 656.00123,657.82717 C 649.6176,661.86852 507.1043,661.36446 489.59199,657.2386 z M 1181.9563,650.47063 C 1181.9563,641.12768 1188.9896,587.80711 1194.3581,556.45024 C 1195.9877,546.93225 1209.3792,534.6829 1286.1945,472.44701 C 1335.6552,432.37378 1375.2032,398.09841 1374.0791,396.2795 C 1372.9208,394.4053 1342.3197,392.97239 1303.4534,392.97239 C 1265.7334,392.97239 1234.8626,391.78179 1234.8515,390.32663 C 1234.7745,380.18793 1250.045,280.27422 1252.6438,273.91281 L 1255.8865,265.9755 L 1437.6383,265.9755 L 1619.39,265.9755 L 1619.3089,275.67665 C 1619.1792,291.19888 1606.1941,374.5214 1603.1191,379.56304 C 1601.5794,382.08763 1596.301,387.32809 1591.3895,391.20855 C 1541.7016,430.4659 1430.6585,525.18177 1430.6585,528.30652 C 1430.6585,531.12988 1454.142,532.83802 1510.0315,534.08001 C 1586.7867,535.78569 1589.3796,536.07659 1588.6472,542.89925 C 1586.0759,566.85435 1572.6163,656.17356 1571.243,658.39565 C 1570.3316,659.87033 1482.3692,661.07691 1375.7711,661.07691 L 1181.9563,661.07691 L 1181.9563,650.47063 z M -143.59065,579.05808 C -147.24562,574.48778 -88.841406,159.3367 -83.292416,150.4436 C -79.995046,145.15908 86.687604,143.98249 89.925074,149.22087 C 91.008354,150.97367 83.821564,208.51914 73.954404,277.09968 L 56.014114,401.79162 L 36.145274,420.12916 C 25.217404,430.21479 15.573364,437.7636 14.714014,436.90429 C 13.854704,436.04494 14.967054,424.61815 17.185944,411.51136 C 26.198594,358.27423 48.954814,186.70163 47.348064,184.1018 C 46.399354,182.56679 24.246864,181.3109 -1.8797857,181.3109 C -47.945646,181.3109 -49.468976,181.55103 -52.233376,189.24821 C -53.801266,193.61372 -64.935606,266.24007 -76.976436,350.64009 C -98.310046,500.17781 -99.242876,504.99505 -113.52244,539.37155 C -128.62343,575.72544 -132.81585,583.46769 -137.4004,583.46769 C -138.86548,583.46769 -141.65109,581.48337 -143.59065,579.05808 z M 214.21114,220.99743 C 212.54537,218.19739 220.65369,159.26364 223.85109,150.93134 C 225.33459,147.06548 236.48364,146.03399 276.78445,146.03399 C 304.86417,146.03399 328.64995,147.34692 329.64169,148.95163 C 331.73336,152.33603 322.85194,214.58783 319.50476,220.00371 C 316.90587,224.20876 216.6843,225.1546 214.21114,220.99743 z "
       id="path2220" />
  </g>
</svg>
